<svg xmlns="http://www.w3.org/2000/svg" width="12.997" height="8.447" viewBox="0 0 11.997 10.447">
  <g id="Icon_ionic-ios-people" data-name="Icon ionic-ios-people" transform="translate(-2.215 -7.748)" opacity="0.3">
    <path id="Path_5270" data-name="Path 5270" d="M14.924,14.247c-.324-.116-.854-.122-1.088-.211a1.538,1.538,0,0,1-.5-.234,3.112,3.112,0,0,1-.084-.825,1.333,1.333,0,0,0,.287-.405,4.5,4.5,0,0,0,.139-.8s.191.081.266-.3c.064-.33.185-.5.153-.747s-.168-.185-.168-.185a2.168,2.168,0,0,0,.168-1.083,1.732,1.732,0,0,0-1.87-1.711,1.738,1.738,0,0,0-1.873,1.711,2.2,2.2,0,0,0,.165,1.083s-.136-.058-.168.185.087.417.153.747c.075.385.266.3.266.3a4.547,4.547,0,0,0,.139.8,1.333,1.333,0,0,0,.287.405,3.112,3.112,0,0,1-.084.825,1.48,1.48,0,0,1-.5.232c-.232.09-.761.1-1.088.217A2.043,2.043,0,0,0,8.191,16.2h8.056A2.039,2.039,0,0,0,14.924,14.247Z" transform="translate(-3.516)" fill="#fff"/>
    <path id="Path_5271" data-name="Path 5271" d="M5.356,14.872a1.965,1.965,0,0,0,.967-.269c-.449-.68-.206-1.473-.3-2.214a1.221,1.221,0,0,0-1.352-1.181H4.661a1.225,1.225,0,0,0-1.34,1.181c-.093.738.165,1.621-.3,2.214a1.819,1.819,0,0,0,.97.24H4a1.466,1.466,0,0,1-.029.486.731.731,0,0,1-.347.159,6.716,6.716,0,0,0-.75.208,1.219,1.219,0,0,0-.654,1.077H4.539a2.08,2.08,0,0,1,.926-.863,1.944,1.944,0,0,1,.715-.151s.11-.174-.252-.24a2.468,2.468,0,0,1-.556-.194C5.318,15.263,5.356,14.872,5.356,14.872Z" transform="translate(0 -2.035)" fill="#fff"/>
    <path id="Path_5272" data-name="Path 5272" d="M24.775,14.872a1.965,1.965,0,0,1-.967-.269c.449-.68.206-1.473.3-2.214a1.221,1.221,0,0,1,1.352-1.181h.012a1.225,1.225,0,0,1,1.34,1.181c.093.738-.165,1.621.3,2.214a1.819,1.819,0,0,1-.97.24h0a1.466,1.466,0,0,0,.029.486.731.731,0,0,0,.347.159,6.716,6.716,0,0,1,.75.208,1.219,1.219,0,0,1,.654,1.077H25.591a2.08,2.08,0,0,0-.926-.863,1.944,1.944,0,0,0-.715-.151s-.11-.174.252-.24a2.468,2.468,0,0,0,.556-.194C24.812,15.263,24.775,14.872,24.775,14.872Z" transform="translate(-12.703 -2.035)" fill="#fff"/>
  </g>
</svg>
