<svg xmlns="http://www.w3.org/2000/svg" width="9.994" height="12.5" viewBox="0 0 9.994 12.5">
  <g id="Group_279" data-name="Group 279" transform="translate(-1424.506 -230.25)" opacity="0.3">
    <path id="Path_5268" data-name="Path 5268" d="M16.11,29.992a1.473,1.473,0,0,0,1.5-1.656H14.6A1.473,1.473,0,0,0,16.11,29.992Z" transform="translate(1413.387 212.758)" fill="#fff"/>
    <path id="Path_5269" data-name="Path 5269" d="M16.628,13.187c-.481-.634-1.428-1.006-1.428-3.846,0-2.915-1.287-4.086-2.487-4.368-.112-.028-.194-.066-.194-.184V4.7A.762.762,0,1,0,11,4.7V4.79c0,.116-.081.156-.194.184-1.2.284-2.487,1.453-2.487,4.368,0,2.84-.947,3.209-1.428,3.846a.62.62,0,0,0,.5.993h8.751A.62.62,0,0,0,16.628,13.187Z" transform="translate(1417.745 226.32)" fill="#fff"/>
  </g>
</svg>
