<svg xmlns="http://www.w3.org/2000/svg" width="12.727" height="13.879" viewBox="0 0 12.727 13.879">
  <g id="Group_916" data-name="Group 916" transform="translate(-1425.413 -235.75)">
    <path id="Subtraction_39" data-name="Subtraction 39" d="M10.895,5.059H0V3.787c.042,0,.086.007.13.007A1.154,1.154,0,0,0,1.3,2.656,1.154,1.154,0,0,0,.13,1.518,1.231,1.231,0,0,0,0,1.525V0H10.895V1.525a1.136,1.136,0,0,0,0,2.263V5.058Z" transform="matrix(0.946, 0.326, -0.326, 0.946, 1427.838, 235.75)" fill="#ffffff" opacity="0.3"/>
    <path id="Subtraction_40" data-name="Subtraction 40" d="M10.9,5.059H0V3.787c.042,0,.086.007.13.007A1.154,1.154,0,0,0,1.3,2.656,1.154,1.154,0,0,0,.13,1.518,1.231,1.231,0,0,0,0,1.525V0H10.9V1.525a1.136,1.136,0,0,0,0,2.263V5.058Z" transform="translate(1425.413 244.664) rotate(-11)" fill="#ffffff" opacity="0.3"/>
  </g>
</svg>
