<svg xmlns="http://www.w3.org/2000/svg" width="11.003" height="12.579" viewBox="0 0 11.003 12.579">
  <path id="Icon_awesome-headset" data-name="Icon awesome-headset" d="M4.126,5.11a.742.742,0,0,0-.688-.786H3.095A1.484,1.484,0,0,0,1.719,5.9V7.076A1.484,1.484,0,0,0,3.095,8.648h.344a.742.742,0,0,0,.688-.786ZM7.908,8.648A1.484,1.484,0,0,0,9.284,7.076V5.9A1.484,1.484,0,0,0,7.908,4.324H7.565a.742.742,0,0,0-.688.786V7.862a.742.742,0,0,0,.688.786ZM5.5,0C2.432,0,.1,2.919,0,6.289v.393a.371.371,0,0,0,.344.393H.688a.371.371,0,0,0,.344-.393V6.289c0-2.818,2.005-5.11,4.47-5.11s4.47,2.292,4.47,5.11h0c0,.06,0,4.071,0,4.071A.98.98,0,0,1,9.063,11.4H6.877A1.113,1.113,0,0,0,5.845,10.22H5.158A1.113,1.113,0,0,0,4.126,11.4a1.113,1.113,0,0,0,1.032,1.179H9.063A2.093,2.093,0,0,0,11,10.361V6.289C10.9,2.919,8.571,0,5.5,0Z" fill="#fff" opacity="0.2"/>
</svg>
