<svg xmlns="http://www.w3.org/2000/svg" width="11.947" height="12.282" viewBox="0 0 11.947 12.282">
  <path id="Icon_material-settings" data-name="Icon material-settings" d="M13.944,9.743a4.234,4.234,0,0,0,0-1.2l1.3-1.013a.31.31,0,0,0,.074-.393L14.085,5.008a.309.309,0,0,0-.375-.135l-1.529.614a4.487,4.487,0,0,0-1.038-.6L10.91,3.258a.3.3,0,0,0-.3-.258H8.153a.3.3,0,0,0-.3.258L7.618,4.885a4.718,4.718,0,0,0-1.038.6L5.051,4.873a.3.3,0,0,0-.375.135L3.449,7.133a.3.3,0,0,0,.074.393l1.3,1.013a4.234,4.234,0,0,0,0,1.2l-1.3,1.013a.31.31,0,0,0-.074.393l1.228,2.125a.309.309,0,0,0,.375.135L6.581,12.8a4.487,4.487,0,0,0,1.038.6l.233,1.627a.3.3,0,0,0,.3.258h2.456a.3.3,0,0,0,.3-.258l.233-1.627a4.718,4.718,0,0,0,1.038-.6l1.529.614a.3.3,0,0,0,.375-.135l1.228-2.125a.31.31,0,0,0-.074-.393l-1.3-1.013ZM9.381,11.291A2.149,2.149,0,1,1,11.53,9.141,2.152,2.152,0,0,1,9.381,11.291Z" transform="translate(-3.406 -3)" fill="#fff" opacity="0.2"/>
</svg>
