<svg xmlns="http://www.w3.org/2000/svg" width="16.929" height="16.925" viewBox="0 0 16.929 16.925">
  <path id="Icon_awesome-instagram" data-name="Icon awesome-instagram" d="M8.461,6.361A4.339,4.339,0,1,0,12.8,10.7,4.333,4.333,0,0,0,8.461,6.361Zm0,7.161A2.821,2.821,0,1,1,11.282,10.7,2.826,2.826,0,0,1,8.461,13.521ZM13.99,6.183a1.012,1.012,0,1,1-1.012-1.012A1.01,1.01,0,0,1,13.99,6.183Zm2.874,1.027A5.009,5.009,0,0,0,15.5,3.664,5.042,5.042,0,0,0,11.951,2.3c-1.4-.079-5.586-.079-6.983,0A5.035,5.035,0,0,0,1.421,3.661,5.025,5.025,0,0,0,.054,7.207c-.079,1.4-.079,5.586,0,6.983a5.009,5.009,0,0,0,1.367,3.546A5.048,5.048,0,0,0,4.968,19.1c1.4.079,5.586.079,6.983,0A5.009,5.009,0,0,0,15.5,17.736a5.042,5.042,0,0,0,1.367-3.546c.079-1.4.079-5.582,0-6.979Zm-1.805,8.479A2.856,2.856,0,0,1,13.45,17.3c-1.114.442-3.758.34-4.989.34s-3.879.1-4.989-.34a2.856,2.856,0,0,1-1.609-1.609c-.442-1.114-.34-3.758-.34-4.989s-.1-3.879.34-4.989A2.856,2.856,0,0,1,3.472,4.1c1.114-.442,3.758-.34,4.989-.34s3.879-.1,4.989.34a2.856,2.856,0,0,1,1.609,1.609c.442,1.114.34,3.758.34,4.989S15.5,14.579,15.059,15.689Z" transform="translate(0.005 -2.238)" fill="#fff"/>
</svg>
