<svg xmlns="http://www.w3.org/2000/svg" width="551.927" height="525.066" viewBox="0 0 551.927 525.066">
  <g id="Group_885" data-name="Group 885" transform="translate(-688.037 -317.509)">
    <g id="freepik--Floor--inject-142" transform="translate(690.737 556.59)">
      <ellipse id="freepik--floor--inject-142-2" data-name="freepik--floor--inject-142" cx="274.613" cy="142.993" rx="274.613" ry="142.993" fill="#292929"/>
    </g>
    <g id="freepik--Shadows--inject-142" transform="translate(723.788 633.682)">
      <ellipse id="freepik--Shadow--inject-142" cx="73.245" cy="42.291" rx="73.245" ry="42.291" transform="translate(344.248)" fill="#292929"/>
      <g id="freepik--shadow--inject-142-2" data-name="freepik--shadow--inject-142" transform="translate(0 5.055)">
        <path id="freepik--shadow--inject-142-3" data-name="freepik--shadow--inject-142" d="M170.6,329.77c28.021,16.181,29.164,42.892,1.13,59.072s-74.592,15.7-102.625-.481-28.021-42.411,0-58.591S142.554,313.59,170.6,329.77Z" transform="translate(-48.084 -317.635)" fill="#292929"/>
        <path id="freepik--shadow--inject-142-4" data-name="freepik--shadow--inject-142" d="M389.248,409.4l-91.986-53.11a11.5,11.5,0,0,0-10.41,0L194.865,409.4c-2.873,1.659-2.873,4.352,0,6.011L236.759,439.6l-39.129,22.588c-7.946,4.58-20.881,4.58-28.851,0L107.23,426.65c-3.39-1.959-5.265-4.424-5.265-6.924s1.875-4.977,5.265-6.936l54.54-31.5a2.4,2.4,0,1,0-2.4-4.159L104.85,408.606c-4.941,2.861-7.67,6.8-7.67,11.108s2.729,8.235,7.67,11.1L166.4,466.344a36.737,36.737,0,0,0,33.659,0l41.533-23.97L286.9,468.52a11.5,11.5,0,0,0,10.41,0L389.3,415.41C392.121,413.751,392.121,411.058,389.248,409.4Z" transform="translate(-38.16 -310.074)" fill="#292929"/>
      </g>
    </g>
    <g id="freepik--character-2--inject-142" transform="translate(926.442 317.509)">
      <g id="freepik--Character--inject-142">
        <g id="freepik--Bottom--inject-142" transform="translate(165.275 142.021)">
          <path id="Path_5951" data-name="Path 5951" d="M442.032,364.68s3.342-49.5,2.4-67.752c-.781-14.425-2.741-20.436-3.15-23.694,0,0-3.546-33.659-3.835-62.378-.144-13.8-1.418-23.61-8.98-40.007l-48.6,11.625c-.986,7.285-4.328,55.73-5.121,98.8-.685,37.711.385,70.721.385,70.721v1.984c0,2.212-.481,3.751-1.9,7.285a42.457,42.457,0,0,1-7.525,12.454c-1,1.082-7.934,7.141-8.848,8.415-2.981,3.474,3.2,5.434,7.778,4.809,4.809-.649,12.334-2.488,14.426-5.422,1.418-1.971,2.488-8.836,3.943-10.819,4.917-6.708,6.936-9.617,6.972-11.733.072-3.871-1.262-5.4-1.743-7.585.4-4.568,10.266-42.134,10.434-55.442.084-6.335-.349-15.063-.349-15.063l7.645-43.9c2.957,10.963,8.15,38.179,9.905,48.626,2.128,12.767,7.694,45.536,10.987,65.083,1.262,7.537,1.851,11.348,2.4,14.846l.132,1.491c.108,1.9,1.491,22.215,2.236,26.447,1.563,8.884,9.461,7.766,10.723.577,1.082-6.107-.264-25.052-.3-27.372Z" transform="translate(-353.76 -168.097)" fill="#ffa8a7"/>
          <path id="Path_5952" data-name="Path 5952" d="M429.935,332.09c2.236,0,.769,8.667,1.346,14.209.613,5.951,2.561,10.3,3.126,15.171a19.811,19.811,0,0,1-1.863,12.49c-1.551,3.606-9.365,8.415-12.334,3.354s-3.606-10.915-3.258-16.469,0-9.28.108-13.644c.108-3.847-2.717-13.668.18-14.221l.132,1.491c1.046,2.08,11.6,2.488,12.658-.325Z" transform="translate(-341.662 -135.507)" fill="rgba(248,68,100,0.95)"/>
          <path id="Path_5953" data-name="Path 5953" d="M385.947,331.27c.685,2.777,0,10.4,0,10.4s-1.2,2.633-5.494,4.376l-1.923-10.6Z" transform="translate(-349.222 -135.673)" fill="#263238"/>
          <path id="Path_5954" data-name="Path 5954" d="M382.083,345.492l-9.449-3.1L370.35,334l10.627,5.374Z" transform="translate(-350.875 -135.121)"/>
          <path id="Path_5955" data-name="Path 5955" d="M375.524,323.621v-1.984c-1.286.625-4.111,10.975-7.934,18.032-3.486,6.479-10.4,10.086-12.646,12.911-3.005,3.763,2.837,8.631,12.2,6.624,4.652-1,11.7-3.967,13.608-7.1s2.548-8.908,4.111-11.216,5.277-4.965,6.011-7.585a14.425,14.425,0,0,0,0-7.213c-.733-2.4-1.382-5.277-2.2-5.013v1.815c-.625,1.274-2.9,2.765-7.621,3.029C378.746,326.026,376.558,325.677,375.524,323.621Z" transform="translate(-354.15 -137.737)" fill="rgba(248,68,100,0.95)"/>
          <path id="Path_5956" data-name="Path 5956" d="M375.846,182.312s-3.21,35.667-4.243,67.247-.108,72.332-.108,72.332,3.258,2.332,10.434,2.657,9.617-2.068,9.617-2.068,4.388-14.317,5.073-24.391a103.039,103.039,0,0,0,0-16.385l6.407-42.146s8.126,41.5,9.052,46.51,8.7,49.359,8.7,49.359,3.053,2.813,10.891,2.669c6.936-.132,8.944-2.621,8.944-2.621s1.671-27.192,1.286-38.8c-.325-10.242-2.669-18.392-3.138-25.04s-.733-44.479-1.2-58.9-1.671-26.807-14.017-44.166Z" transform="translate(-350.721 -168.56)" fill="#595959"/>
          <path id="Path_5957" data-name="Path 5957" d="M400.89,233.459l-5.337-26.447s-9.292-2.4-13.632-8.1c0,0,1.2,6.3,10.819,10.326l5.674,26.3-1.971,27.192Z" transform="translate(-348.536 -162.426)" fill="#37474f"/>
        </g>
        <g id="freepik--Top--inject-142" transform="translate(0 22.912)">
          <path id="Path_5958" data-name="Path 5958" d="M319.758,184.8a22.96,22.96,0,0,0,10.23-.757,20.123,20.123,0,0,1-4.051-2.681,2.8,2.8,0,0,1-.481-3.871c.445-.481,1.551.637,4.051,1.346,3.2.9,5.518,1.094,8.6,2.873a5.638,5.638,0,0,0,3.847.673c7.5-1.406,24.992-9.617,33.01-13.9,1.635-6.672,4.472-16.481,7.97-28.719,3.234-11.276,8.415-16.2,16.685-16.024l-1.19,24.487s-3.943,16.914-8.824,30.726c-.853,2.4-4.28,5.205-10.555,7.537-8.126,3.017-17.936,5.866-29.921,9.148a92.913,92.913,0,0,1-14.834,2.945c-12.67,1.082-17.527-2.4-19.234-4.9C310.2,186.78,313.075,183.462,319.758,184.8Z" transform="translate(-197.267 -58.511)" fill="#ffa8a7"/>
          <path id="Path_5959" data-name="Path 5959" d="M409.016,123.626l11.564.89a26.879,26.879,0,0,0,8.7,25.894l-5.157,20.773c.168,2.573,4.424,11.228,8.547,20.532-7.754,10.386-45.789,13.933-58.195,4.808,1.911-9.785,3.342-17.214,3.727-20.929l-.625-13.428c-15.555-12.755,3.21-32.193,10.122-38.372l8.679-.385Z" transform="translate(-185.353 -58.577)" fill="rgba(248,68,100,0.95)"/>
          <path id="Path_5960" data-name="Path 5960" d="M443.649,212.358a6.479,6.479,0,0,1-2.476-5.578c.2-1.935.649-4.364,1.455-5.3s5.854-7.8,8.09-3.811c2.4,4.352,1.911,6.119,1.911,6.119Z" transform="translate(-171.289 -43.817)" fill="#f28f8f"/>
          <path id="Path_5961" data-name="Path 5961" d="M452.349,308.395a31.062,31.062,0,0,1-15.327-4.64L377,269.085c-9.268-5.349-16.83-18.417-16.83-29.127V189.6a9.617,9.617,0,0,0-14.425-8.295l-21.013,12.165a2.4,2.4,0,1,1-2.4-4.159L343.4,177.135A14.425,14.425,0,0,1,365.038,189.6v50.357c0,9.016,6.612,20.436,14.425,24.968l60.022,34.645c7.682,4.436,14.81,5.205,20.051,2.188s8.138-9.617,8.138-18.453v-64.29c0-10.891,6.96-23.441,15.844-28.574l14.654-8.415a2.4,2.4,0,1,1,2.4,4.159L485.924,194.6c-7.285,4.207-13.44,15.375-13.44,24.4v64.29c0,10.651-3.751,18.681-10.543,22.612A18.849,18.849,0,0,1,452.349,308.395Z" transform="translate(-195.568 -48.108)" fill="#37474f"/>
          <g id="freepik--Plug--inject-142" transform="translate(30.962 119.105)">
            <path id="Path_5962" data-name="Path 5962" d="M358,198.289v3.931c0,6.287-4.412,13.945-9.869,17.082l-36.4,21.025L274.72,218.954V186.905l35.9-16.613c5.71-2.633,14.75-2.224,20.208.914l17.287,9.99C353.555,184.345,358,192,358,198.289Z" transform="translate(-235.891 -168.556)" fill="#37474f"/>
            <path id="Path_5963" data-name="Path 5963" d="M310.623,170.292c5.71-2.633,14.75-2.224,20.208.914l17.287,9.99c5.446,3.138,5.229,7.826-.481,10.471l-35.931,16.589L274.68,186.893Z" transform="translate(-235.899 -168.556)" fill="#455a64"/>
            <path id="Path_5964" data-name="Path 5964" d="M315.2,198.2a10.9,10.9,0,0,1,4.929,8.535V233.1l-8.415,4.809L274.7,216.536V184.548l9.377-4.328Z" transform="translate(-235.895 -166.199)" opacity="0.15"/>
            <path id="Path_5965" data-name="Path 5965" d="M273.1,179.284a3.426,3.426,0,0,1,3.462.337l36.4,21.025a10.891,10.891,0,0,1,4.929,8.547v31.351a3.426,3.426,0,0,1-1.443,3.174c-.842.469-3.811,2.188-4.64,2.681a3.45,3.45,0,0,1-3.474-.337l-36.412-21.025a10.9,10.9,0,0,1-4.929-8.535V185.15a3.474,3.474,0,0,1,1.431-3.186Z" transform="translate(-237.457 -166.453)" fill="#37474f"/>
            <path id="Path_5966" data-name="Path 5966" d="M308.331,202.867l-36.412-21.013c-2.717-1.575-4.929-.3-4.929,2.849v31.351a10.9,10.9,0,0,0,4.929,8.535l36.412,21.025c2.717,1.575,4.929.3,4.929-2.849V211.414a10.927,10.927,0,0,0-4.929-8.547Z" transform="translate(-237.454 -166.005)" fill="#455a64"/>
            <path id="Path_5967" data-name="Path 5967" d="M265.51,234.514v5.422c0,2.2.757,3.727,2.008,4.448l3.27,1.887a4.809,4.809,0,0,0,4.929-.433l30.053-17.383v-21.4l-3.27-1.887-30.113,17.383a15.255,15.255,0,0,0-6.876,11.961Zm13.62-6.708a4.81,4.81,0,0,1,.192,1.2,10.218,10.218,0,0,1-4.628,8.018,4.352,4.352,0,0,1-1.2.481,4.941,4.941,0,0,1-.168-1.2,10.23,10.23,0,0,1,4.628-8.018A5.7,5.7,0,0,1,279.13,227.806Z" transform="translate(-237.753 -161.156)" fill="rgba(248,68,100,0.95)"/>
            <path id="Path_5968" data-name="Path 5968" d="M270.615,242.361a1.2,1.2,0,0,0,.2.144h0l-.12-.072-3.162-1.839c-1.262-.7-2.008-2.224-2.008-4.436v-5.422a13.992,13.992,0,0,1,2.032-6.816l3.27,1.887a14.186,14.186,0,0,0-2.02,6.816v5.422a5.518,5.518,0,0,0,1.262,3.871A2.946,2.946,0,0,0,270.615,242.361Z" transform="translate(-237.749 -157.366)" opacity="0.2"/>
            <path id="Path_5969" data-name="Path 5969" d="M305.423,207.057,275.37,224.44a14.089,14.089,0,0,0-4.881,5.145l-3.27-1.887a14.161,14.161,0,0,1,4.869-5.145L302.2,205.17Z" transform="translate(-237.407 -161.156)" fill="#fff" opacity="0.5"/>
            <path id="Path_5970" data-name="Path 5970" d="M270.014,239.45h0Z" transform="translate(-236.86 -154.227)" fill="#fff" opacity="0.5"/>
            <path id="Path_5971" data-name="Path 5971" d="M270,239.43Z" transform="translate(-236.845 -154.231)" opacity="0.2"/>
            <path id="Path_5972" data-name="Path 5972" d="M277.978,225.237a5.139,5.139,0,0,0-.168-1.286h0c1.983-.541,3.438.7,3.438,3.174a10.242,10.242,0,0,1-4.616,8.018c-2.14,1.2-3.967.589-4.472-1.406a3.931,3.931,0,0,0,1.2-.481,10.254,10.254,0,0,0,4.616-8.018Z" transform="translate(-236.409 -157.385)" opacity="0.2"/>
            <path id="Path_5973" data-name="Path 5973" d="M242.42,221.174v5.434c0,2.188.757,3.727,2.008,4.436l3.27,1.9a4.809,4.809,0,0,0,4.9-.457l30.053-17.395V193.729l-3.27-1.9-30.053,17.383A15.291,15.291,0,0,0,242.42,221.174Zm13.62-6.744a5.2,5.2,0,0,1,.168,1.286,10.23,10.23,0,0,1-4.628,8.018,5.528,5.528,0,0,1-1.2.481,4.58,4.58,0,0,1-.168-1.262,10.242,10.242,0,0,1,4.616-8.018,4.7,4.7,0,0,1,1.214-.5Z" transform="translate(-242.42 -163.852)" fill="rgba(248,68,100,0.95)"/>
            <path id="Path_5974" data-name="Path 5974" d="M247.842,229.225H247.7l-3.27-1.911c-1.262-.709-2.008-2.236-2.008-4.448v-5.422a11.877,11.877,0,0,1,.541-3.414,16.2,16.2,0,0,1,1.479-3.39h0l3.27,1.875h0a15.25,15.25,0,0,0-.829,1.659,13.09,13.09,0,0,0-1.2,5.145v5.422a5.542,5.542,0,0,0,1.2,3.871,3.365,3.365,0,0,0,.962.613Z" transform="translate(-242.42 -160.05)" opacity="0.2"/>
            <path id="Path_5975" data-name="Path 5975" d="M282.344,193.729,252.29,211.112a13.993,13.993,0,0,0-4.881,5.145l-3.27-1.875a14.15,14.15,0,0,1,4.808-5.169L279,191.83Z" transform="translate(-242.072 -163.852)" fill="#fff" opacity="0.5"/>
            <path id="Path_5976" data-name="Path 5976" d="M247.014,226.12h-.024Z" transform="translate(-241.508 -156.921)" fill="#fff" opacity="0.5"/>
            <path id="Path_5977" data-name="Path 5977" d="M254.856,211.926a5.062,5.062,0,0,0-.156-1.274h0c1.971-.553,3.438.7,3.438,3.174a10.242,10.242,0,0,1-4.616,8.018c-2.152,1.2-3.967.589-4.472-1.418a3.751,3.751,0,0,0,1.2-.481A10.218,10.218,0,0,0,254.856,211.926Z" transform="translate(-241.08 -160.074)" opacity="0.2"/>
          </g>
          <path id="Path_5978" data-name="Path 5978" d="M251.111,203.327a1.791,1.791,0,0,1-1.743-1.358L244.56,183.12a1.806,1.806,0,1,1,3.5-.9l4.809,18.861a1.779,1.779,0,0,1-1.3,2.188,1.888,1.888,0,0,1-.457.06Z" transform="translate(-211.037 -46.964)" fill="#e0e0e0"/>
          <path id="Path_5979" data-name="Path 5979" d="M242.063,209.083a1.8,1.8,0,0,1-1.118-.385l-17.9-14.149a1.8,1.8,0,1,1,2.236-2.825l17.9,14.137a1.815,1.815,0,0,1,.3,2.536,1.779,1.779,0,0,1-1.418.685Z" transform="translate(-215.525 -44.858)" fill="#e0e0e0"/>
          <path id="Path_5980" data-name="Path 5980" d="M218.535,221.33a1.8,1.8,0,1,1-.132-3.606l20.929-1.623a1.791,1.791,0,0,1,1.935,1.659,1.815,1.815,0,0,1-1.659,1.935l-20.929,1.623Z" transform="translate(-216.664 -39.843)" fill="#e0e0e0"/>
          <path id="Path_5981" data-name="Path 5981" d="M466.063,207.309a118.473,118.473,0,0,0-1.971-13.223A178.051,178.051,0,0,0,453.2,164.26c-2.008-3.835-6.54-9.425-9.749-14.149-4.544-6.672-7.742-10.41-11.192-14.942-7.6-9.942-10.819-10.519-19.691-10.819-1.2,3.162-3.943,16.12,4.941,26.591l19.042,20.075c1.082,1.743,12.718,21.638,14.654,28.983a5.433,5.433,0,0,1-.457,3.883,46.882,46.882,0,0,0-3.33,10.531c-.565,2.548-2.08,4.568-1.563,4.965a3.414,3.414,0,0,0,4.219-.337,18.093,18.093,0,0,0,3.282-4.953,2.585,2.585,0,0,1,2.753,2.633c.108,1.479-.565,3.534-1.082,6.095-.1.5-.216,1.082-.445,2.476a16.137,16.137,0,0,0-.337,2.861c2.4.445,4.917-1.022,8.956-4.809C466.844,219.811,467.085,215.17,466.063,207.309Z" transform="translate(-177.342 -58.387)" fill="#ffa8a7"/>
          <path id="Path_5982" data-name="Path 5982" d="M410.945,128.685c.072-2.4,7.886-8.03,11.841-14.017,3.606-5.554,8.788-20.821-3.354-25.7,0,0,2.621-7.321-2.14-11.637s-11.168-1.647-12.178.156a10.819,10.819,0,0,0-10.17-7.982,9.461,9.461,0,0,0-9.954,7.417,9.124,9.124,0,0,0-11.072,3.1c-4.46,6.143,1.455,11.769,1.455,11.769a5.109,5.109,0,0,0-2.224,4.76c.349,2.6,2.837,3.234,3.125,4.532a1.274,1.274,0,0,1-2.176,1.13,2.621,2.621,0,0,0,3.077,2.08c2.8-.156,5.3-3.967,5.3-3.967Z" transform="translate(-185.215 -69.478)" fill="#263238"/>
          <path id="Path_5983" data-name="Path 5983" d="M384.41,85.05c-3.606,1.563-7.008,7.056-6.96,22.42,0,13.019,4.039,16.313,6.011,17.287s5.951.469,9.785-.12v7.489s-6.936,8.607-.721,12.887c16.012-2.8,17.238-13.307,17.238-13.307l.288-16.325s2.2,2.308,6.011-1.082c3.2-2.8,4.352-7.6,1.947-10.242s-5.482-2.849-8.271.1c0,0-5.109.337-12.791-4.484S386.526,89.955,384.41,85.05Z" transform="translate(-184.165 -66.33)" fill="#ffa8a7"/>
          <path id="Path_5984" data-name="Path 5984" d="M391.561,110.794a1.875,1.875,0,0,1-1.779,2,1.935,1.935,0,1,1,1.779-2Z" transform="translate(-182.095 -61.504)" fill="#b16668"/>
          <path id="Path_5985" data-name="Path 5985" d="M383.262,100.293a1.731,1.731,0,1,1-1.8-1.743,1.767,1.767,0,0,1,1.8,1.743Z" transform="translate(-183.69 -63.601)" fill="#263238"/>
          <path id="Path_5986" data-name="Path 5986" d="M394.373,100.961a1.875,1.875,0,0,1-1.779,2,1.911,1.911,0,0,1-1.923-1.875,1.852,1.852,0,1,1,3.7-.12Z" transform="translate(-181.493 -63.476)" fill="#263238"/>
          <path id="Path_5987" data-name="Path 5987" d="M382.3,94.27l-3.667,2.152a2.044,2.044,0,0,0,2.885.781,2.2,2.2,0,0,0,.781-2.933Z" transform="translate(-183.927 -64.466)" fill="#263238"/>
          <path id="Path_5988" data-name="Path 5988" d="M404.955,99.18v7.213a3.39,3.39,0,0,1-3.474-3.51,3.727,3.727,0,0,1,3.474-3.7Z" transform="translate(-179.309 -63.474)" fill="#263238"/>
          <path id="Path_5989" data-name="Path 5989" d="M387.665,98.57l-.733,10.386-5.482-1.286Z" transform="translate(-183.357 -63.597)" fill="#f28f8f"/>
          <path id="Path_5990" data-name="Path 5990" d="M390.632,119.037c4.027-.469,12.346-2.777,13.7-6.167a8.835,8.835,0,0,1-2.981,4.292c-2.512,2.164-10.735,4.4-10.735,4.4Z" transform="translate(-181.503 -60.707)" fill="#f28f8f"/>
        </g>
        <g id="freepik--question-marks--inject-142" transform="translate(241)">
          <path id="Path_5991" data-name="Path 5991" d="M433.681,51.334a16.565,16.565,0,0,1,4.268,2.4,12.922,12.922,0,0,1,3.186,3.354,10.434,10.434,0,0,1,1.563,4.135,9.2,9.2,0,0,1-.565,4.652,9.5,9.5,0,0,1-1.911,3.2,11.422,11.422,0,0,1-2.56,2.02,17.8,17.8,0,0,1-2.885,1.322l-2.837,1.022a14.354,14.354,0,0,0-2.4,1.13,4.292,4.292,0,0,0-1.743,1.611,2.116,2.116,0,0,1-.793.769,1.2,1.2,0,0,1-1.034.06L422.212,75.6a1.419,1.419,0,0,1-.805-.757,1.2,1.2,0,0,1,0-1.07A9.268,9.268,0,0,1,423.5,70.7a13.113,13.113,0,0,1,2.7-1.959,18.75,18.75,0,0,1,2.957-1.274c1.01-.337,1.948-.661,2.825-1a12.5,12.5,0,0,0,2.272-1.106A3.354,3.354,0,0,0,435.6,63.7a3.955,3.955,0,0,0-.409-3.678,7.213,7.213,0,0,0-3.739-2.777,6.888,6.888,0,0,0-7.73,1.863,3.114,3.114,0,0,1-.829.625,1.382,1.382,0,0,1-1.01-.072l-3.991-1.5a1.118,1.118,0,0,1-.649-.589,1.022,1.022,0,0,1,0-.9,8.018,8.018,0,0,1,2.4-3.126,12.875,12.875,0,0,1,3.931-2.236,15.628,15.628,0,0,1,4.893-.89,13.8,13.8,0,0,1,5.205.914Zm-8.559,28.731a1.322,1.322,0,0,1,.781.745,1.358,1.358,0,0,1,0,1.082l-1.635,4.34a1.322,1.322,0,0,1-.745.781,1.358,1.358,0,0,1-1.082,0l-4.244-1.6a1.322,1.322,0,0,1-.781-.745,1.359,1.359,0,0,1,0-1.082l1.635-4.34a1.382,1.382,0,0,1,.745-.793,1.407,1.407,0,0,1,1.082,0Z" transform="translate(-417.143 -50.418)" fill="rgba(248,68,100,0.95)"/>
          <path id="Path_5992" data-name="Path 5992" d="M434.039,98.577a1.322,1.322,0,0,1,0,1.887l-3.005,3.174a1.3,1.3,0,0,1-.938.409,1.334,1.334,0,0,1-.962-.361l-3.065-2.945a1.365,1.365,0,0,1-.048-1.9l3.017-3.162a1.346,1.346,0,0,1,1.887,0Zm18.032-21.794a16.037,16.037,0,0,1,2.849,3.606,12.551,12.551,0,0,1,1.527,4.087,9.918,9.918,0,0,1-.2,4.147,9.617,9.617,0,0,1-5.037,5.9,10.543,10.543,0,0,1-2.957.817,17.864,17.864,0,0,1-2.993.084l-2.837-.156a14.582,14.582,0,0,0-2.536.084,4.087,4.087,0,0,0-2.068.841,1.876,1.876,0,0,1-.974.373,1.13,1.13,0,0,1-.926-.325l-2.729-2.6a1.382,1.382,0,0,1-.433-.95,1.106,1.106,0,0,1,.385-.95,8.739,8.739,0,0,1,2.933-1.923,12.3,12.3,0,0,1,3.065-.709,18.38,18.38,0,0,1,3.041,0q1.5.132,2.813.18a11.456,11.456,0,0,0,2.4-.132,3.138,3.138,0,0,0,1.791-.938,3.763,3.763,0,0,0,.986-3.342,6.756,6.756,0,0,0-2.224-3.787,6.515,6.515,0,0,0-7.405-1.2,2.765,2.765,0,0,1-.938.228,1.2,1.2,0,0,1-.854-.433l-2.909-2.777a1.106,1.106,0,0,1-.361-.733,1.058,1.058,0,0,1,.313-.805,7.754,7.754,0,0,1,3.222-1.839,12.262,12.262,0,0,1,4.232-.493,14.63,14.63,0,0,1,4.58,1.034,12.743,12.743,0,0,1,4.2,2.7Z" transform="translate(-415.422 -45.849)" fill="#ba68c8"/>
          <g id="Group_883" data-name="Group 883" transform="translate(10.237 27.173)" opacity="0.6">
            <path id="Path_5993" data-name="Path 5993" d="M434.039,98.577a1.322,1.322,0,0,1,0,1.887l-3.005,3.174a1.3,1.3,0,0,1-.938.409,1.334,1.334,0,0,1-.962-.361l-3.065-2.945a1.365,1.365,0,0,1-.048-1.9l3.017-3.162a1.346,1.346,0,0,1,1.887,0Zm18.032-21.794a16.037,16.037,0,0,1,2.849,3.606,12.551,12.551,0,0,1,1.527,4.087,9.918,9.918,0,0,1-.2,4.147,9.617,9.617,0,0,1-5.037,5.9,10.543,10.543,0,0,1-2.957.817,17.864,17.864,0,0,1-2.993.084l-2.837-.156a14.582,14.582,0,0,0-2.536.084,4.087,4.087,0,0,0-2.068.841,1.876,1.876,0,0,1-.974.373,1.13,1.13,0,0,1-.926-.325l-2.729-2.6a1.382,1.382,0,0,1-.433-.95,1.106,1.106,0,0,1,.385-.95,8.739,8.739,0,0,1,2.933-1.923,12.3,12.3,0,0,1,3.065-.709,18.38,18.38,0,0,1,3.041,0q1.5.132,2.813.18a11.456,11.456,0,0,0,2.4-.132,3.138,3.138,0,0,0,1.791-.938,3.763,3.763,0,0,0,.986-3.342,6.756,6.756,0,0,0-2.224-3.787,6.515,6.515,0,0,0-7.405-1.2,2.765,2.765,0,0,1-.938.228,1.2,1.2,0,0,1-.854-.433l-2.909-2.777a1.106,1.106,0,0,1-.361-.733,1.058,1.058,0,0,1,.313-.805,7.754,7.754,0,0,1,3.222-1.839,12.262,12.262,0,0,1,4.232-.493,14.63,14.63,0,0,1,4.58,1.034,12.743,12.743,0,0,1,4.2,2.7Z" transform="translate(-425.659 -73.022)" fill="#fff"/>
          </g>
        </g>
      </g>
    </g>
    <g id="freepik--character-1--inject-142" transform="translate(688.037 323.064)">
      <g id="freepik--character--inject-142-2" data-name="freepik--character--inject-142">
        <g id="freepik--bottom--inject-142-2" data-name="freepik--bottom--inject-142" transform="translate(67.152 170.642)">
          <path id="Path_5994" data-name="Path 5994" d="M76.81,350.555c3.811,2.32,8.872,2.4,13.644.733l3.606-25.245-16.83-4.3Z" transform="translate(-73.678 -171.775)" fill="#ffa8a7"/>
          <path id="Path_5995" data-name="Path 5995" d="M104.488,369.511c.421.433.168,3.606-.349,4.316s-3.414,3.113-8.751,3.21c-5.085.084-9.617-.841-12.454-2.9s-4.2-4.207-4.328-7.117.349-5.662-.9-7.958-2.753-4.219-3.138-5.349a14.425,14.425,0,0,1,0-6.215Z" transform="translate(-74.2 -166.568)" fill="#263238"/>
          <path id="Path_5996" data-name="Path 5996" d="M92.147,346.458A13.9,13.9,0,0,0,92.6,349.7a29.777,29.777,0,0,0,2.753,6.516,27.366,27.366,0,0,0,1.959,3.089c1.431,1.911,3.258,3.51,4.809,5.349a10.35,10.35,0,0,1,2.8,6.4c0,3.991-4.388,5.109-7.742,5.518a24.439,24.439,0,0,1-10.819-1.118,9.93,9.93,0,0,1-6.84-8.319c-.132-1.118,0-2.236-.072-3.354a15.544,15.544,0,0,0-2.717-7.129,20.435,20.435,0,0,1-2.164-3.919c-.914-2.512.072-5.241.866-7.658.685-2.08,1.2-4.592,1.971-4.352v1.358c.216.469.745.805.878,1.358a10.326,10.326,0,0,0,.517,1.671,4.328,4.328,0,0,0,1.659,2.044c.132-1.5.264-3.005.385-4.5a1.575,1.575,0,0,1,1.719-1.791,28.356,28.356,0,0,1,8.547-.253,1.635,1.635,0,0,1,1.118.565,1.731,1.731,0,0,1,.132,1.022,39.417,39.417,0,0,0-.216,4.255Z" transform="translate(-74.205 -168.002)" fill="rgba(248,68,100,0.95)"/>
          <path id="Path_5998" data-name="Path 5998" d="M94.5,354.867c-1.419-1.2-4.736-1.382-6.564-1.286a11.083,11.083,0,0,0-5.253,1.527,1.2,1.2,0,0,1-1.5-.2h0a1.106,1.106,0,0,1,.192-1.683,11.36,11.36,0,0,1,5.926-1.839c4.544-.072,5.746.745,5.746.745S95.017,353.569,94.5,354.867Z" transform="translate(-72.856 -165.785)" fill="#455a64"/>
          <path id="Path_5999" data-name="Path 5999" d="M97.25,358.391c-1.8-1.2-5.458-1.2-7.285-1.142a10.338,10.338,0,0,0-5.109,1.635,1.2,1.2,0,0,1-1.515-.2h0a1.094,1.094,0,0,1,.2-1.683,11.48,11.48,0,0,1,6.011-2c4.484-.084,5.6.9,5.6.9a3.691,3.691,0,0,1,2.092,2.488Z" transform="translate(-72.42 -165.053)" fill="#455a64"/>
          <path id="Path_6000" data-name="Path 6000" d="M85.99,347.763a11.144,11.144,0,0,1,5.59.769c.757.493,1.2,1.755.685,2.044a10.41,10.41,0,0,0-4.989-.95,14.714,14.714,0,0,0-4.893,1.07,9.159,9.159,0,0,0-1.2.553,1.046,1.046,0,0,1-1.443-.529h0a1.01,1.01,0,0,1,.457-1.2,14.342,14.342,0,0,1,5.794-1.755Z" transform="translate(-73.097 -166.531)" fill="#455a64"/>
          <path id="Path_6001" data-name="Path 6001" d="M116.644,342.17c2.933,7.345,7.525,5.085,14.522.853l1.058-25.076-17.8-1.647Z" transform="translate(-66.076 -172.875)" fill="#ffa8a7"/>
          <path id="Path_6002" data-name="Path 6002" d="M158.258,354.3a4.808,4.808,0,0,1-.385,3.522c-.553,1.01-6.119,3.775-13.392,2.885a30.317,30.317,0,0,1-14.81-6.083c-2.681-2-5.554-2.488-9.16-2.9s-6.311-1.659-7.02-3.39.373-4.592.373-4.592Z" transform="translate(-66.313 -167.326)" fill="#263238"/>
          <path id="Path_6003" data-name="Path 6003" d="M129.955,333.633a14.358,14.358,0,0,0,1.935-.553,1.575,1.575,0,0,1,1.094,0c.457.2.6.757.709,1.2a16.663,16.663,0,0,0,.625,3.21,7.862,7.862,0,0,0,1.923,2.26,33.452,33.452,0,0,0,5.638,4.075c2.32,1.418,4.6,2.536,7,3.775s5.746,2.128,7.646,3.606c2.753,2.092,2.861,6.96-.5,8.691-2.9,1.5-10.4,2.9-18.032.276-4.171-1.431-8.619-6.2-14.149-6.936-3.522-.457-8.211-1.01-10.338-3.811-.769-1.2-.1-4.688.529-8.763.565-3.606,1.082-9.377,2.248-8.992l.084,1.106,1.418,1.695a12.1,12.1,0,0,0,.986.938q.569.666,1.2,1.274a3.607,3.607,0,0,0,2.032.854,1.875,1.875,0,0,0,1.022-.228c.6-.337.685-1.13,1.2-1.623a5.866,5.866,0,0,1,1.971-1.334,11.552,11.552,0,0,1,3.2-.649,4.377,4.377,0,0,0,.565-.072Z" transform="translate(-66.332 -169.771)" fill="rgba(248,68,100,0.95)"/>
          <path id="Path_6005" data-name="Path 6005" d="M135.979,340.331a3.318,3.318,0,0,0-2.524-1.887c-1.587-.385-4.484.649-6.323,2.008a1.322,1.322,0,0,0,.072,2.188h0a1.346,1.346,0,0,0,1.515-.084A10,10,0,0,1,135.979,340.331Z" transform="translate(-63.617 -168.415)" fill="#455a64"/>
          <path id="Path_6006" data-name="Path 6006" d="M140.173,342.865a3.787,3.787,0,0,0-3.005-1.755,11.732,11.732,0,0,0-6.924,2.176,1.286,1.286,0,0,0,0,2.116h0a1.286,1.286,0,0,0,1.467-.1A10.122,10.122,0,0,1,140.173,342.865Z" transform="translate(-62.99 -167.86)" fill="#455a64"/>
          <path id="Path_6007" data-name="Path 6007" d="M144.6,345.181a4.219,4.219,0,0,0-3.126-1.611,11.372,11.372,0,0,0-6.648,2.212,1.286,1.286,0,0,0,.072,2.116h0a1.2,1.2,0,0,0,1.455-.084A9.617,9.617,0,0,1,144.6,345.181Z" transform="translate(-62.057 -167.363)" fill="#455a64"/>
          <path id="Path_6008" data-name="Path 6008" d="M76.465,308.09c.541-12.105,3.113-18.4,3.474-21.758,0,0,.986-66.6,2.609-86.805l59.625-2.536c.878,21.638,1.671,79.773,1.2,87.466-.445,7.369-3.438,71.286-3.438,71.286-8.415,2.633-17.395-1.2-17.395-1.2s-5-36.364-5.818-44.382a102.458,102.458,0,0,1,.553-21.638l-3.811-51.775s-4.6,40.151-6.876,55.3c-2.6,17.323-13.8,71.021-13.8,71.021C84.736,365.071,76.9,361.6,76.9,361.6S75.672,325.629,76.465,308.09Z" transform="translate(-73.802 -196.99)" fill="#616161"/>
          <path id="Path_6009" data-name="Path 6009" d="M107.21,233.12l1.13-7.141c3.474-.517,12.274-6.011,17.479-10.819A41.473,41.473,0,0,1,111.2,228.636l-.18,56.235Z" transform="translate(-67.534 -193.317)" fill="#37474f"/>
        </g>
        <g id="freepik--top--inject-142-2" data-name="freepik--top--inject-142" transform="translate(0 22.61)">
          <path id="Path_6010" data-name="Path 6010" d="M129.7,176.226c-4.051-9.244-11.023-24.812-11.023-24.812L116.91,126.17a68.091,68.091,0,0,1,7.706.685c3.751.589,9.7,4.171,12.418,10.927,2.032,5.013,12.586,35.595,12.586,35.595l18.392-9.689c4.712-2.993,6.383-7.958,9.389-10.819s6.011-3.294,9.34-5.59,4.64-4.135,5.482-1.839-2.885,5.818-3.606,6.7-4.34,2.753.276,2.993,13.957-4.256,16.193-5.025,2.044,1.887.878,3.534-1.286,6.479-3.234,9.184c-2.068,2.885-3.186,4.123-7.621,5.842-4.123,1.587-12.67,2-17.07,4.532s-15.051,12.165-22.155,17.106c-9.533,6.636-14.894,7.068-18.633,1.779S131.131,179.484,129.7,176.226Z" transform="translate(1.579 -63.272)" fill="#ffa8a7"/>
          <path id="Path_6011" data-name="Path 6011" d="M114.84,125.748c6.251-.481,13.62-.1,17.7,3.606,3.258,2.969,4.484,4.809,8.114,15.075,2.4,6.888,7.549,22.756,7.549,22.756a32.842,32.842,0,0,0-18.032,11.048l-11.721-26.339Z" transform="translate(1.161 -63.391)" fill="#292929"/>
          <path id="Path_6012" data-name="Path 6012" d="M145.428,165.671a15.736,15.736,0,0,0-7.778,6.011s.445-4.808,7.213-7.682Z" transform="translate(5.771 -55.626)" fill="#f28f8f"/>
          <path id="Path_6013" data-name="Path 6013" d="M107.382,124.784a29.535,29.535,0,0,0-8.788.962c-5.494,1.455-15.339,4.219-15.339,4.219-3.126,1.623-4.34,7.032-5.049,10.146-2.26,9.966,3.606,32.457,4.508,41.221s-1.046,35.607-1.046,35.607c6.72,7.79,43.132,12.959,60.864,0,0,0,.769-61.633-.974-70.48-2.645-13.392-6.576-19.751-20.436-20.556Z" transform="translate(-6.348 -63.557)" fill="#292929"/>
          <path id="Path_6014" data-name="Path 6014" d="M109.568,97.489l-3.955,2.176a2.4,2.4,0,0,1,.926-3.15,2.2,2.2,0,0,1,3.029.974Z" transform="translate(-0.756 -69.32)" fill="#263238"/>
          <path id="Path_6015" data-name="Path 6015" d="M123.776,99.225l-3.606-2.777a2.188,2.188,0,0,1,3.138-.481A2.4,2.4,0,0,1,123.776,99.225Z" transform="translate(2.238 -69.47)" fill="#263238"/>
          <path id="Path_6016" data-name="Path 6016" d="M94.848,86.81s-4.256.589-5.818,3.835c-1.346,2.789-.866,9.521.95,16.83a67.86,67.86,0,0,0,4.568,13.776,5.65,5.65,0,0,0,3.246,2.609l-.228-8.727-.313-6.011s3.883-5.313,4.316-9.617c.553-5.6-.625-7.9-.625-7.9Z" transform="translate(-4.212 -71.228)" fill="#263238"/>
          <path id="Path_6017" data-name="Path 6017" d="M99.45,96.551a16.265,16.265,0,0,0,16.289,16.2c8.968,0,15.7-7.393,15.628-16.373s-6.8-16.169-15.784-16.132A16.253,16.253,0,0,0,99.45,96.551Z" transform="translate(-1.95 -72.554)" fill="#263238"/>
          <path id="Path_6018" data-name="Path 6018" d="M97.957,108.207c-1.467,1.274-2.657-2.008-3.883-3.294s-5.253-3.017-7.213,1.2,1.755,10.338,4.809,11.516A4.388,4.388,0,0,0,96.851,116v19.234c4.628,8.343,12.791,8.078,17.154,7.609s5.313-5,2.128-8.655v-6.011a34.008,34.008,0,0,0,7.333.349c3.991-.625,6.011-3.606,7.213-7.97,1.923-6.96,2.7-18.645,0-32.145-4.472-3.462-19.979-2.885-29.368,3.065C102.045,103.579,99.352,106.945,97.957,108.207Z" transform="translate(-4.605 -71.335)" fill="#ffa8a7"/>
          <path id="Path_6019" data-name="Path 6019" d="M130.216,84.237a29.319,29.319,0,0,0,.805-7.658c0-1.01-.252-2.236-1.2-2.621s-1.887.313-2.7.866c-3.462,2.332-7.766,2.993-11.937,3.222-7.213.4-18.236-.072-21.9,7.826-1.022,2.188-1.2,4.5.817,6.011a13.825,13.825,0,0,0,6.011,2.236c3.606.637,7.213,1.431,10.915,1.923s8.1.974,11.769-.156c3.089-.95,6.227-1.767,8.523-4.219a11.757,11.757,0,0,0,3.15-7.862c0-.409-.084-.926-.493-1.034a.938.938,0,0,0-.589.12Z" transform="translate(-3.348 -73.848)" fill="#263238"/>
          <path id="Path_6020" data-name="Path 6020" d="M113.839,122.53s-8.92-1.767-12.021-3.414a10.3,10.3,0,0,1-4.328-4.256,14,14,0,0,0,2.4,5.025c2.3,2.909,13.921,5.013,13.921,5.013Z" transform="translate(-2.346 -65.558)" fill="#f28f8f"/>
          <path id="Path_6021" data-name="Path 6021" d="M110.275,102.538a2.008,2.008,0,1,1-2.008-2.068,2.044,2.044,0,0,1,2.008,2.068Z" transform="translate(-0.573 -68.467)" fill="#263238"/>
          <path id="Path_6022" data-name="Path 6022" d="M112.635,114.067a1.888,1.888,0,1,1-1.9-1.947,1.923,1.923,0,0,1,1.9,1.947Z" transform="translate(-0.048 -66.112)" fill="#b16668"/>
          <path id="Path_6023" data-name="Path 6023" d="M108.257,97.143l-4.135,2.609a2.561,2.561,0,0,1,.793-3.462,2.4,2.4,0,0,1,3.342.854Z" transform="translate(-1.08 -69.383)" fill="#263238"/>
          <path id="Path_6024" data-name="Path 6024" d="M119.667,94.82l4.352,1.947a2.284,2.284,0,0,1-3.077,1.2,2.512,2.512,0,0,1-1.274-3.15Z" transform="translate(2.104 -69.609)" fill="#263238"/>
          <path id="Path_6025" data-name="Path 6025" d="M122.2,102.028a1.935,1.935,0,1,1-1.947-2.008,1.984,1.984,0,0,1,1.947,2.008Z" transform="translate(1.866 -68.558)" fill="#263238"/>
          <path id="Path_6026" data-name="Path 6026" d="M113.37,98.87l.721,13.368,6.335-1.683Z" transform="translate(0.864 -68.79)" fill="#f28f8f"/>
          <path id="Path_6027" data-name="Path 6027" d="M20.335,146.425c2.08,1.118,10.555,7.081,15.159,7.6,1.947.216,2.476-.1,2.4-.6-.1-.7-1.334-1.743-1.635-2.308-.517-.986-3.606-5.073-2.4-7.213s2.248-.1,5.109,2.7,5.794,3.775,8.307,7.032,3.354,8.415,7.513,12.153L71.353,177.1s7.718-35.811,11.108-40.031c3.606-4.436,19.078,5.229,15.832,19.33s-10.639,38.576-15.784,43.373c-3.318,3.113-10.3.18-19.018-7.573-6.888-6.131-16.325-15.327-20.316-18.585s-12.286-5.013-16.1-7.213c-4.1-2.4-5-3.811-6.576-7-1.479-2.993-.817-7.79-1.695-9.617S18.219,145.307,20.335,146.425Z" transform="translate(-18.343 -61.288)" fill="#ffa8a7"/>
          <path id="Path_6028" data-name="Path 6028" d="M86.358,129.09c5.313,3.318,5.578,8.15,5.842,13.68a57.185,57.185,0,0,1-3.029,19.042c-2.248,6.96-5.818,19.667-5.818,19.667s-13.873.325-21.013-5.842c0,0,3.258-13.7,5.554-24.042S72.979,130.256,86.358,129.09Z" transform="translate(-9.451 -62.682)" fill="#292929"/>
          <path id="Path_6029" data-name="Path 6029" d="M62.39,170.519c3.787,2.1,6.011,6.624,6.7,8.415a13.223,13.223,0,0,0-6.3-10.254Z" transform="translate(-9.441 -54.68)" fill="#f28f8f"/>
        </g>
        <g id="freepik--Outlet--inject-142" transform="translate(196.868 344.71)">
          <path id="Path_6030" data-name="Path 6030" d="M182.11,386.34l92.78,53.567v19.739l-92.78-53.567Z" transform="translate(-182.11 -332.785)" fill="rgba(248,68,100,0.95)"/>
          <path id="Path_6032" data-name="Path 6032" d="M352.07,386.34l-92.78,53.567v19.739l92.78-53.567Z" transform="translate(-166.51 -332.785)" fill="rgba(248,68,100,0.95)"/>
          <path id="Path_6034" data-name="Path 6034" d="M367.67,395.345,274.89,341.79l-92.78,53.555,92.78,53.567Z" transform="translate(-182.11 -341.79)" fill="rgba(248,68,100,0.95)"/>
          <path id="Path_6036" data-name="Path 6036" d="M274.89,439.907v-5.638L191.871,386.34H182.11Z" transform="translate(-182.11 -332.785)" opacity="0.1"/>
          <path id="Path_6037" data-name="Path 6037" d="M259.29,341.79v5.638l83.019,47.917h9.761Z" transform="translate(-166.51 -341.79)" opacity="0.1"/>
          <path id="Path_6038" data-name="Path 6038" d="M352.07,386.34h-9.761L259.29,434.269v5.638Z" transform="translate(-166.51 -332.785)" fill="rgba(248,68,100,0.95)"/>
          <path id="Path_6039" data-name="Path 6039" d="M274.89,341.79v5.638l-83.019,47.917H182.11Z" transform="translate(-182.11 -341.79)" fill="rgba(248,68,100,0.95)"/>
          <path id="Path_6040" data-name="Path 6040" d="M266.764,367.218l39.862,23.009c2.981,1.731,2.981,4.52,0,6.239L276.9,413.68a11.889,11.889,0,0,1-10.819,0l-39.862-23.009c-2.981-1.731-2.981-4.52,0-6.239l29.741-17.214A11.889,11.889,0,0,1,266.764,367.218Z" transform="translate(-173.647 -336.913)" fill="#37474f"/>
          <path id="Path_6041" data-name="Path 6041" d="M276.356,412.431l28.743-16.6-38.877-22.444a12.021,12.021,0,0,0-10.819,0L226.66,390.012l38.877,22.42A11.889,11.889,0,0,0,276.356,412.431Z" transform="translate(-173.105 -335.664)" fill="#455a64"/>
          <path id="Path_6042" data-name="Path 6042" d="M239.611,388.1l17.443-10.062a2.332,2.332,0,0,1,2.092,0l2.14,1.2c.577.325.577.866,0,1.2l-17.443,10.062a2.308,2.308,0,0,1-2.08,0l-2.14-1.2a.637.637,0,0,1-.012-1.2Z" transform="translate(-170.573 -334.513)" fill="#263238"/>
          <path id="Path_6043" data-name="Path 6043" d="M261.281,400.633l17.443-10.062a2.308,2.308,0,0,1,2.08,0l2.152,1.2c.577.325.577.866,0,1.2l-17.443,10.062a2.308,2.308,0,0,1-2.08,0l-2.14-1.2a.637.637,0,0,1-.012-1.2Z" transform="translate(-166.193 -331.98)" fill="#263238"/>
          <path id="Path_6044" data-name="Path 6044" d="M227.914,420.419a11.588,11.588,0,0,0-5.265-9.1,3.667,3.667,0,0,0-3.715-.361l-2.272,1.322a3.678,3.678,0,0,0-1.539,3.39,11.649,11.649,0,0,0,5.253,9.112,3.69,3.69,0,0,0,3.727.361l2.26-1.358A3.7,3.7,0,0,0,227.914,420.419Z" transform="translate(-175.441 -327.879)" fill="#cd2c49"/>
        </g>
        <g id="freepik--Cable--inject-142" transform="translate(94.771 111.87)">
          <path id="Path_6046" data-name="Path 6046" d="M183.228,504.133a34.32,34.32,0,0,1-16.83-4.075L104.85,464.523c-4.941-2.861-7.67-6.8-7.67-11.108s2.729-8.235,7.67-11.1l71.31-41.173c7.814-4.508,14.425-15.94,14.425-24.968V150.5a2.4,2.4,0,1,1,4.808,0V376.179c0,10.891-7.381,23.694-16.83,29.139l-71.31,41.173c-3.39,1.959-5.265,4.412-5.265,6.924s1.875,4.977,5.265,6.936L168.8,495.886c7.946,4.592,20.881,4.592,28.851,0l45.38-26.182a2.4,2.4,0,1,1,2.4,4.159l-45.38,26.194A34.26,34.26,0,0,1,183.228,504.133Z" transform="translate(-97.18 -148.1)" fill="#37474f"/>
        </g>
        <g id="freepik--exclamation-marks--inject-142" transform="translate(45.53)">
          <path id="Path_6047" data-name="Path 6047" d="M79.745,83.014a1.272,1.272,0,0,1,1.01-1.491l5.842-1.13a1.2,1.2,0,0,1,.962.192,1.31,1.31,0,0,1,.541.817l.9,4.688a1.318,1.318,0,0,1-1.01,1.5l-5.854,1.118a1.272,1.272,0,0,1-1.491-1.01ZM74.864,57.7a1.274,1.274,0,0,1,1.01-1.5l5.854-1.13a1.3,1.3,0,0,1,1.491,1.01l3.835,20.039a1.3,1.3,0,0,1-1.01,1.491l-5.854,1.13a1.3,1.3,0,0,1-1.491-1.01Z" transform="translate(-52.455 -55.039)" fill="rgba(248,68,100,0.95)"/>
          <path id="Path_6048" data-name="Path 6048" d="M73.747,98.891a1.274,1.274,0,0,1,.1-1.8l4.436-3.979a1.308,1.308,0,0,1,1.8.1l3.186,3.606a1.274,1.274,0,0,1-.1,1.8L78.8,102.546a1.308,1.308,0,0,1-1.8-.1Zm-17.2-19.234a1.286,1.286,0,0,1-.325-.926,1.2,1.2,0,0,1,.421-.878l4.436-3.979a1.278,1.278,0,0,1,1.8.1L76.488,89.19a1.308,1.308,0,0,1-.1,1.8l-4.448,3.979a1.31,1.31,0,0,1-1.8-.1Z" transform="translate(-56.218 -51.299)" fill="#ba68c8"/>
          <g id="Group_884" data-name="Group 884" transform="translate(0 22.248)" opacity="0.6">
            <path id="Path_6049" data-name="Path 6049" d="M73.747,98.891a1.274,1.274,0,0,1,.1-1.8l4.436-3.979a1.308,1.308,0,0,1,1.8.1l3.186,3.606a1.274,1.274,0,0,1-.1,1.8L78.8,102.546a1.308,1.308,0,0,1-1.8-.1Zm-17.2-19.234a1.286,1.286,0,0,1-.325-.926,1.2,1.2,0,0,1,.421-.878l4.436-3.979a1.278,1.278,0,0,1,1.8.1L76.488,89.19a1.308,1.308,0,0,1-.1,1.8l-4.448,3.979a1.31,1.31,0,0,1-1.8-.1Z" transform="translate(-56.218 -73.547)" fill="#fff"/>
          </g>
        </g>
      </g>
    </g>
  </g>
</svg>
