<svg xmlns="http://www.w3.org/2000/svg" width="23.42" height="19.572" viewBox="0 0 23.42 19.572">
  <path id="Icon_ionic-md-eye-off" data-name="Icon ionic-md-eye-off" d="M13.963,8.618a5.245,5.245,0,0,1,5.326,5.153,4.85,4.85,0,0,1-.382,1.886l3.11,3.007a12.205,12.205,0,0,0,3.653-4.893A12.6,12.6,0,0,0,13.952,6.044a12.916,12.916,0,0,0-4.239.719l2.3,2.227A5.383,5.383,0,0,1,13.963,8.618ZM3.316,5.81l2.43,2.35.491.474A12.163,12.163,0,0,0,2.25,13.771,12.59,12.59,0,0,0,13.963,21.5a12.91,12.91,0,0,0,4.662-.866l.449.433,3.12,3.007,1.354-1.31L4.665,4.5ZM9.2,11.5l1.652,1.6a2.851,2.851,0,0,0-.084.668,3.14,3.14,0,0,0,3.193,3.089,3.076,3.076,0,0,0,.69-.082l1.652,1.6a5.385,5.385,0,0,1-2.341.545,5.245,5.245,0,0,1-5.326-5.153A4.99,4.99,0,0,1,9.2,11.5Zm4.589-.8,3.355,3.247.021-.163A3.14,3.14,0,0,0,13.973,10.7Z" transform="translate(-2.25 -4.5)" fill="rgba(248,68,100,0.95)" opacity="0.9"/>
</svg>
