<svg xmlns="http://www.w3.org/2000/svg" width="663.981" height="699.998" viewBox="0 0 663.981 699.998">
  <path id="Subtraction_20" data-name="Subtraction 20" d="M-11025.943-3021.234l-20.129,0c.042-.573.063-1.148.063-1.71a22.024,22.024,0,0,0-22-22,22.025,22.025,0,0,0-22,22c0,.549.021,1.124.064,1.71h-20.13c.042-.54.064-1.114.064-1.71a22.025,22.025,0,0,0-22-22,22.025,22.025,0,0,0-22,22c0,.561.022,1.136.067,1.71h-20.133c.044-.563.067-1.138.067-1.71a22.025,22.025,0,0,0-22-22,22.026,22.026,0,0,0-22,22c0,.566.022,1.141.066,1.71h-20.132c.044-.56.066-1.135.066-1.71a22.024,22.024,0,0,0-22-22,22.025,22.025,0,0,0-22,22c0,.585.021,1.16.064,1.71h-20.13c.042-.576.064-1.151.064-1.71a22.025,22.025,0,0,0-22-22,22.025,22.025,0,0,0-22,22c0,.587.021,1.163.064,1.71h-20.13c.042-.54.064-1.114.064-1.71a22.025,22.025,0,0,0-22-22,22.024,22.024,0,0,0-22,22c0,.565.022,1.141.066,1.71h-20.132c.044-.559.066-1.134.066-1.71a22.026,22.026,0,0,0-22-22,22.025,22.025,0,0,0-22,22c0,.561.022,1.136.067,1.71h-20.133c.044-.562.067-1.137.067-1.71a22.025,22.025,0,0,0-22-22,22.025,22.025,0,0,0-22,22c0,.586.021,1.161.064,1.71h-20.13c.042-.577.064-1.152.064-1.71a22.025,22.025,0,0,0-22-22,22.024,22.024,0,0,0-22,22c0,.552.021,1.128.063,1.71H-11626v-700h24.177a22.039,22.039,0,0,0,21.815,19.143,22.039,22.039,0,0,0,21.815-19.143h20.37a22.038,22.038,0,0,0,21.815,19.143,22.041,22.041,0,0,0,21.815-19.143h20.367a22.038,22.038,0,0,0,21.815,19.143,22.042,22.042,0,0,0,21.818-19.143h20.366a22.039,22.039,0,0,0,21.815,19.143,22.041,22.041,0,0,0,21.816-19.143h20.369a22.039,22.039,0,0,0,21.815,19.143,22.039,22.039,0,0,0,21.815-19.143h20.369a22.04,22.04,0,0,0,21.816,19.143,22.041,22.041,0,0,0,21.815-19.143h20.366a22.042,22.042,0,0,0,21.818,19.143,22.041,22.041,0,0,0,21.816-19.143h20.366a22.039,22.039,0,0,0,21.815,19.143,22.039,22.039,0,0,0,21.815-19.143h20.37a22.038,22.038,0,0,0,21.815,19.143,22.041,22.041,0,0,0,21.815-19.143h20.369a22.039,22.039,0,0,0,21.815,19.143,22.041,22.041,0,0,0,21.816-19.143h20.173v700h-20.054c.042-.577.064-1.152.064-1.71a22.025,22.025,0,0,0-22-22,22.024,22.024,0,0,0-22,22c0,.578.021,1.153.063,1.71h0Z" transform="translate(11626 3721.232)" opacity="0.5"/>
</svg>
