<svg xmlns="http://www.w3.org/2000/svg" width="19.263" height="20.013" viewBox="0 0 19.263 20.013">
  <path id="Icon_awesome-user-alt" data-name="Icon awesome-user-alt" d="M9.632,11.258a5.528,5.528,0,0,0,5.418-5.629A5.528,5.528,0,0,0,9.632,0,5.528,5.528,0,0,0,4.214,5.629,5.528,5.528,0,0,0,9.632,11.258Zm4.816,1.251H12.374a6.327,6.327,0,0,1-5.485,0H4.816a4.912,4.912,0,0,0-4.816,5v.625a1.843,1.843,0,0,0,1.806,1.876H17.457a1.843,1.843,0,0,0,1.806-1.876v-.625A4.912,4.912,0,0,0,14.447,12.508Z" fill="#fff" opacity="0.85"/>
</svg>
