<svg xmlns="http://www.w3.org/2000/svg" width="82.056" height="104.592" viewBox="0 0 82.056 104.592">
  <g id="Group_853" data-name="Group 853" transform="translate(-1440 -257)">
    <g id="Group_282" data-name="Group 282" transform="translate(1440 257)" opacity="0.75">
      <path id="Path_5295" data-name="Path 5295" d="M2.053,0H66.385a1.882,1.882,0,0,1,2.053,1.642V13.134a289.887,289.887,0,0,1-34.017,2.29A301.424,301.424,0,0,1,0,13.134V1.642A1.882,1.882,0,0,1,2.053,0Z" transform="translate(6.844 72.545)" fill="#fff"/>
      <path id="Rectangle_482" data-name="Rectangle 482" d="M4,0H9a4,4,0,0,1,4,4V56a0,0,0,0,1,0,0H0a0,0,0,0,1,0,0V4A4,4,0,0,1,4,0Z" transform="translate(0 47)" fill="#fff"/>
      <path id="Rectangle_483" data-name="Rectangle 483" d="M4,0h6a4,4,0,0,1,4,4V56a0,0,0,0,1,0,0H0a0,0,0,0,1,0,0V4A4,4,0,0,1,4,0Z" transform="translate(68 47)" fill="#fff"/>
      <path id="Rectangle_484" data-name="Rectangle 484" d="M20,0H35A20,20,0,0,1,55,20V73a0,0,0,0,1,0,0H0a0,0,0,0,1,0,0V20A20,20,0,0,1,20,0Z" transform="translate(13 0)" fill="#fff"/>
    </g>
    <path id="Path_5306" data-name="Path 5306" d="M0-1.634S3.846-3.871,7.314-3.871a12.747,12.747,0,0,1,6.555,2.237V7.612H0Z" transform="translate(1440 353.981)" fill="rgba(248,68,100,0.95)"/>
    <path id="Path_5307" data-name="Path 5307" d="M13.869-1.056A19.678,19.678,0,0,0,7.052-2.5,21.874,21.874,0,0,0,0-1.056V8.19H13.869Z" transform="translate(1508.187 352.247)" fill="rgba(248,68,100,0.95)"/>
  </g>
</svg>
