<svg xmlns="http://www.w3.org/2000/svg" width="18" height="18" viewBox="0 0 18 18">
  <path id="Icon_ionic-ios-star-outline" data-name="Icon ionic-ios-star-outline" d="M19.567,9.606h-5.91l-1.8-5.772a.636.636,0,0,0-1.221,0l-1.8,5.772H2.893a.671.671,0,0,0-.643.692.546.546,0,0,0,.012.117.678.678,0,0,0,.269.489L7.389,14.59,5.525,20.427a.726.726,0,0,0,.221.779.6.6,0,0,0,.362.169.753.753,0,0,0,.4-.156L11.25,17.58l4.741,3.639a.72.72,0,0,0,.4.156.558.558,0,0,0,.358-.169.717.717,0,0,0,.221-.779L15.107,14.59l4.817-3.721.117-.108a.749.749,0,0,0,.209-.463A.7.7,0,0,0,19.567,9.606Zm-5.111,4a1.269,1.269,0,0,0-.41,1.376l1.209,3.795a.165.165,0,0,1-.245.2L11.9,16.589a1.069,1.069,0,0,0-.655-.225,1.049,1.049,0,0,0-.651.225l-3.11,2.384a.164.164,0,0,1-.245-.2L8.45,14.98A1.273,1.273,0,0,0,8.036,13.6L4.781,11.125a.176.176,0,0,1,.092-.316H8.839A1.134,1.134,0,0,0,9.9,9.982l1.189-3.816a.158.158,0,0,1,.305,0l1.189,3.816a1.134,1.134,0,0,0,1.065.826h3.909a.173.173,0,0,1,.092.312Z" transform="translate(-2.25 -3.375)" fill="rgba(248,68,100,0.95)"/>
</svg>
