<svg xmlns="http://www.w3.org/2000/svg" width="546.54" height="538" viewBox="0 0 546.54 538">
  <g id="Group_908" data-name="Group 908" transform="translate(-1211.653 -834)">
    <g id="Group_895" data-name="Group 895" transform="translate(1517.733 1474.5)">
      <g id="Group_5" data-name="Group 5" transform="translate(36 -415.645)">
        <circle id="Ellipse_7" data-name="Ellipse 7" cx="1.495" cy="1.495" r="1.495" transform="translate(0 0.468) rotate(-9)" fill="#fff"/>
        <circle id="Ellipse_6" data-name="Ellipse 6" cx="1.495" cy="1.495" r="1.495" transform="translate(3.42 2.953) rotate(-9)" fill="#fff"/>
      </g>
      <g id="Group_3" data-name="Group 3" transform="translate(-58.343 -399.994)">
        <path id="Path_3781" data-name="Path 3781" d="M772.287,480.577s-3.519-1.459-5.361.687-2.932,11.97,0,13.708,7.783,1.171,9.547,0c0,0-3.767,1.918.024-.017s12.7-24.967,13.112-25.269a3.281,3.281,0,0,1,3.187,0c.994.78,1.246,25.924,1.246,25.924" transform="translate(-765.112 -469.261)" fill="none" stroke="rgba(248,68,100,0.95)" stroke-linecap="round" stroke-width="3"/>
        <path id="Path_3782" data-name="Path 3782" d="M2844.48-665.825c-.506-.127-4.877,0-4.877,0" transform="translate(-2817.51 678.681)" fill="none" stroke="rgba(248,68,100,0.95)" stroke-linecap="round" stroke-width="3"/>
      </g>
      <g id="Group_4" data-name="Group 4" transform="translate(-102 -417)">
        <text id="T" transform="translate(0 45)" fill="#fff" font-size="50" font-family="SegoeUI-Italic, Segoe UI" font-style="italic"><tspan x="0" y="0">T</tspan></text>
        <text id="i" transform="translate(28.794 45)" fill="#fff" font-size="50" font-family="SegoeUI-Italic, Segoe UI" font-style="italic"><tspan x="0" y="0">i</tspan></text>
        <text id="r" transform="translate(76.367 45)" fill="#fff" font-size="50" font-family="SegoeUI-Italic, Segoe UI" font-style="italic"><tspan x="0" y="0">r</tspan></text>
        <text id="e" transform="translate(95.398 43)" fill="#fff" font-size="48" font-family="SegoeUI-Italic, Segoe UI" font-style="italic"><tspan x="0" y="0">e</tspan></text>
        <text id="t-2" data-name="t" transform="translate(123.696 45)" fill="#fff" font-size="50" font-family="SegoeUI-Italic, Segoe UI" font-style="italic"><tspan x="0" y="0">t</tspan></text>
      </g>
    </g>
    <g id="Group_889" data-name="Group 889" transform="translate(83.653 53)">
      <circle id="Ellipse_240" data-name="Ellipse 240" cx="28.5" cy="28.5" r="28.5" transform="translate(1129 862)" fill="#fff" opacity="0.9"/>
      <path id="Icon_awesome-user" data-name="Icon awesome-user" d="M15.75,18a9,9,0,1,0-9-9A9,9,0,0,0,15.75,18Zm6.3,2.25H20.876a12.24,12.24,0,0,1-10.252,0H9.45A9.452,9.452,0,0,0,0,29.7v2.925A3.376,3.376,0,0,0,3.375,36h24.75A3.376,3.376,0,0,0,31.5,32.625V29.7A9.452,9.452,0,0,0,22.05,20.25Z" transform="translate(1141.75 872.5)" fill="#7c7c7c"/>
    </g>
    <g id="Group_892" data-name="Group 892" transform="translate(82.653 347)">
      <circle id="Ellipse_240-2" data-name="Ellipse 240" cx="28.5" cy="28.5" r="28.5" transform="translate(1129 862)" fill="#fff" opacity="0.9"/>
      <path id="Icon_awesome-user-2" data-name="Icon awesome-user" d="M15.75,18a9,9,0,1,0-9-9A9,9,0,0,0,15.75,18Zm6.3,2.25H20.876a12.24,12.24,0,0,1-10.252,0H9.45A9.452,9.452,0,0,0,0,29.7v2.925A3.376,3.376,0,0,0,3.375,36h24.75A3.376,3.376,0,0,0,31.5,32.625V29.7A9.452,9.452,0,0,0,22.05,20.25Z" transform="translate(1141.75 872.5)" fill="rgba(248,68,100,0.95)"/>
    </g>
    <g id="Group_890" data-name="Group 890" transform="translate(315.653 -28)">
      <circle id="Ellipse_240-3" data-name="Ellipse 240" cx="28.5" cy="28.5" r="28.5" transform="translate(1129 862)" fill="#fff" opacity="0.9"/>
      <path id="Icon_awesome-user-3" data-name="Icon awesome-user" d="M15.75,18a9,9,0,1,0-9-9A9,9,0,0,0,15.75,18Zm6.3,2.25H20.876a12.24,12.24,0,0,1-10.252,0H9.45A9.452,9.452,0,0,0,0,29.7v2.925A3.376,3.376,0,0,0,3.375,36h24.75A3.376,3.376,0,0,0,31.5,32.625V29.7A9.452,9.452,0,0,0,22.05,20.25Z" transform="translate(1141.75 872.5)" fill="#7c7c7c"/>
    </g>
    <g id="Group_893" data-name="Group 893" transform="translate(315.653 453)">
      <circle id="Ellipse_240-4" data-name="Ellipse 240" cx="28.5" cy="28.5" r="28.5" transform="translate(1129 862)" fill="#fff" opacity="0.9"/>
      <path id="Icon_awesome-user-4" data-name="Icon awesome-user" d="M15.75,18a9,9,0,1,0-9-9A9,9,0,0,0,15.75,18Zm6.3,2.25H20.876a12.24,12.24,0,0,1-10.252,0H9.45A9.452,9.452,0,0,0,0,29.7v2.925A3.376,3.376,0,0,0,3.375,36h24.75A3.376,3.376,0,0,0,31.5,32.625V29.7A9.452,9.452,0,0,0,22.05,20.25Z" transform="translate(1141.75 872.5)" fill="rgba(248,68,100,0.95)"/>
    </g>
    <g id="Group_891" data-name="Group 891" transform="translate(547.653 54)">
      <circle id="Ellipse_240-5" data-name="Ellipse 240" cx="28.5" cy="28.5" r="28.5" transform="translate(1129 862)" fill="#fff" opacity="0.9"/>
      <path id="Icon_awesome-user-5" data-name="Icon awesome-user" d="M15.75,18a9,9,0,1,0-9-9A9,9,0,0,0,15.75,18Zm6.3,2.25H20.876a12.24,12.24,0,0,1-10.252,0H9.45A9.452,9.452,0,0,0,0,29.7v2.925A3.376,3.376,0,0,0,3.375,36h24.75A3.376,3.376,0,0,0,31.5,32.625V29.7A9.452,9.452,0,0,0,22.05,20.25Z" transform="translate(1141.75 872.5)" fill="#7c7c7c"/>
    </g>
    <g id="Group_894" data-name="Group 894" transform="translate(554.653 347)">
      <circle id="Ellipse_240-6" data-name="Ellipse 240" cx="28.5" cy="28.5" r="28.5" transform="translate(1129 862)" fill="#fff" opacity="0.9"/>
      <path id="Icon_awesome-user-6" data-name="Icon awesome-user" d="M15.75,18a9,9,0,1,0-9-9A9,9,0,0,0,15.75,18Zm6.3,2.25H20.876a12.24,12.24,0,0,1-10.252,0H9.45A9.452,9.452,0,0,0,0,29.7v2.925A3.376,3.376,0,0,0,3.375,36h24.75A3.376,3.376,0,0,0,31.5,32.625V29.7A9.452,9.452,0,0,0,22.05,20.25Z" transform="translate(1141.75 872.5)" fill="rgba(248,68,100,0.95)"/>
    </g>
    <g id="Group_907" data-name="Group 907">
      <line id="Line_44" data-name="Line 44" y2="145" transform="translate(1473.153 900.5)" fill="none" stroke="#707070" stroke-width="1" stroke-dasharray="4"/>
      <circle id="Ellipse_243" data-name="Ellipse 243" cx="1.5" cy="1.5" r="1.5" transform="translate(1471.653 898)" fill="#fff"/>
      <circle id="Ellipse_244" data-name="Ellipse 244" cx="1.5" cy="1.5" r="1.5" transform="translate(1471.653 1045)" fill="#fff"/>
    </g>
    <g id="Group_902" data-name="Group 902" transform="translate(84.653 70)">
      <line id="Line_45" data-name="Line 45" y2="145" transform="translate(1391.5 1073.5)" fill="none" stroke="#707070" stroke-width="1" stroke-dasharray="4"/>
      <circle id="Ellipse_249" data-name="Ellipse 249" cx="1.5" cy="1.5" r="1.5" transform="translate(1390 1071)" fill="#fff"/>
      <circle id="Ellipse_250" data-name="Ellipse 250" cx="1.5" cy="1.5" r="1.5" transform="translate(1390 1218)" fill="#fff"/>
    </g>
    <g id="Group_903" data-name="Group 903" transform="translate(84.653 70)">
      <circle id="Ellipse_241" data-name="Ellipse 241" cx="1.5" cy="1.5" r="1.5" transform="translate(1155 915)" fill="#fff"/>
      <circle id="Ellipse_248" data-name="Ellipse 248" cx="1.5" cy="1.5" r="1.5" transform="translate(1155 915)" fill="#fff"/>
      <circle id="Ellipse_242" data-name="Ellipse 242" cx="1.5" cy="1.5" r="1.5" transform="translate(1288 1011)" fill="#fff"/>
      <circle id="Ellipse_247" data-name="Ellipse 247" cx="1.5" cy="1.5" r="1.5" transform="translate(1288 1011)" fill="#fff"/>
      <path id="Path_6051" data-name="Path 6051" d="M-950.5,11417.021c.659,31.412,15.788,52.347,35.507,66.4,37.161,26.493,94.443,27.416,94.443,27.416" transform="translate(2107 -10498)" fill="none" stroke="#707070" stroke-linecap="round" stroke-width="1" stroke-dasharray="4"/>
    </g>
    <g id="Group_905" data-name="Group 905" transform="translate(1573.653 985)">
      <circle id="Ellipse_241-2" data-name="Ellipse 241" cx="1.5" cy="1.5" r="1.5" transform="translate(133)" fill="#fff"/>
      <circle id="Ellipse_248-2" data-name="Ellipse 248" cx="1.5" cy="1.5" r="1.5" transform="translate(133)" fill="#fff"/>
      <circle id="Ellipse_242-2" data-name="Ellipse 242" cx="1.5" cy="1.5" r="1.5" transform="translate(0 96)" fill="#fff"/>
      <circle id="Ellipse_247-2" data-name="Ellipse 247" cx="1.5" cy="1.5" r="1.5" transform="translate(0 96)" fill="#fff"/>
      <path id="Path_6051-2" data-name="Path 6051" d="M-820.549,11417.021c-.659,31.412-15.788,52.347-35.507,66.4-37.161,26.493-94.443,27.416-94.443,27.416" transform="translate(955.049 -11413)" fill="none" stroke="#707070" stroke-linecap="round" stroke-width="1" stroke-dasharray="4"/>
    </g>
    <g id="Group_904" data-name="Group 904" transform="translate(1239.653 1097)">
      <circle id="Ellipse_241-3" data-name="Ellipse 241" cx="1.5" cy="1.5" r="1.5" transform="translate(0 96)" fill="#fff"/>
      <circle id="Ellipse_248-3" data-name="Ellipse 248" cx="1.5" cy="1.5" r="1.5" transform="translate(0 96)" fill="#fff"/>
      <circle id="Ellipse_242-3" data-name="Ellipse 242" cx="1.5" cy="1.5" r="1.5" transform="translate(133)" fill="#fff"/>
      <circle id="Ellipse_247-3" data-name="Ellipse 247" cx="1.5" cy="1.5" r="1.5" transform="translate(133)" fill="#fff"/>
      <path id="Path_6051-3" data-name="Path 6051" d="M-950.5,11510.842c.659-31.412,15.788-52.347,35.507-66.4,37.161-26.493,94.443-27.416,94.443-27.416" transform="translate(952 -11415.863)" fill="none" stroke="#707070" stroke-linecap="round" stroke-width="1" stroke-dasharray="4"/>
    </g>
    <g id="Group_906" data-name="Group 906" transform="translate(1573.653 1097)">
      <circle id="Ellipse_241-4" data-name="Ellipse 241" cx="1.5" cy="1.5" r="1.5" transform="translate(133 96)" fill="#fff"/>
      <circle id="Ellipse_248-4" data-name="Ellipse 248" cx="1.5" cy="1.5" r="1.5" transform="translate(133 96)" fill="#fff"/>
      <circle id="Ellipse_242-4" data-name="Ellipse 242" cx="1.5" cy="1.5" r="1.5" fill="#fff"/>
      <circle id="Ellipse_247-4" data-name="Ellipse 247" cx="1.5" cy="1.5" r="1.5" fill="#fff"/>
      <path id="Path_6051-4" data-name="Path 6051" d="M-820.549,11510.842c-.659-31.412-15.788-52.347-35.507-66.4-37.161-26.493-94.443-27.416-94.443-27.416" transform="translate(955.049 -11415.863)" fill="none" stroke="#707070" stroke-linecap="round" stroke-width="1" stroke-dasharray="4"/>
    </g>
    <path id="Subtraction_21" data-name="Subtraction 21" d="M18.055,8.383H0V6.276c.07.007.142.011.215.011A1.912,1.912,0,0,0,2.149,4.4,1.913,1.913,0,0,0,.215,2.515,2.04,2.04,0,0,0,0,2.526V0H18.055V2.526a1.882,1.882,0,0,0,0,3.75V8.382Z" transform="matrix(0.946, 0.326, -0.326, 0.946, 1269.672, 1193)" fill="rgba(248,68,100,0.95)"/>
    <path id="Subtraction_34" data-name="Subtraction 34" d="M18.055,8.383H0V6.276c.07.007.142.011.215.011A1.912,1.912,0,0,0,2.149,4.4,1.913,1.913,0,0,0,.215,2.515,2.04,2.04,0,0,0,0,2.526V0H18.055V2.526a1.882,1.882,0,0,0,0,3.75V8.382Z" transform="matrix(0.946, 0.326, -0.326, 0.946, 1269.672, 972)" fill="#f9f9f9"/>
    <path id="Subtraction_36" data-name="Subtraction 36" d="M18.055,8.383H0V6.276c.07.007.142.011.215.011A1.912,1.912,0,0,0,2.149,4.4,1.913,1.913,0,0,0,.215,2.515,2.04,2.04,0,0,0,0,2.526V0H18.055V2.526a1.882,1.882,0,0,0,0,3.75V8.382Z" transform="matrix(0.946, 0.326, -0.326, 0.946, 1499.672, 891)" fill="#f9f9f9"/>
    <path id="Subtraction_38" data-name="Subtraction 38" d="M18.055,8.383H0V6.276c.07.007.142.011.215.011A1.912,1.912,0,0,0,2.149,4.4,1.913,1.913,0,0,0,.215,2.515,2.04,2.04,0,0,0,0,2.526V0H18.055V2.526a1.882,1.882,0,0,0,0,3.75V8.382Z" transform="matrix(0.946, 0.326, -0.326, 0.946, 1737.672, 973.5)" fill="#f9f9f9"/>
    <path id="Subtraction_29" data-name="Subtraction 29" d="M19.949,9.262H0V6.934c.077.008.157.012.238.012A2.113,2.113,0,0,0,2.375,4.863,2.114,2.114,0,0,0,.238,2.779,2.27,2.27,0,0,0,0,2.792V0H19.949V2.792a2.079,2.079,0,0,0,0,4.143V9.262Z" transform="matrix(0.946, 0.326, -0.326, 0.946, 1506.093, 1294.166)" fill="rgba(248,68,100,0.95)"/>
    <path id="Subtraction_31" data-name="Subtraction 31" d="M18.681,8.674H0V6.493c.073.007.147.012.223.012a1.979,1.979,0,0,0,2-1.951,1.979,1.979,0,0,0-2-1.951A2.122,2.122,0,0,0,0,2.614V0H18.681V2.614a1.947,1.947,0,0,0,0,3.879V8.673Z" transform="matrix(0.946, 0.326, -0.326, 0.946, 1740.53, 1185.201)" fill="rgba(248,68,100,0.95)"/>
    <path id="Subtraction_22" data-name="Subtraction 22" d="M18.055,8.383H0V6.276c.07.007.142.011.215.011A1.912,1.912,0,0,0,2.149,4.4,1.913,1.913,0,0,0,.215,2.515,2.04,2.04,0,0,0,0,2.526V0H18.055V2.526a1.882,1.882,0,0,0,0,3.75V8.382Z" transform="translate(1265.653 1207.771) rotate(-11)" fill="rgba(248,68,100,0.95)"/>
    <path id="Subtraction_33" data-name="Subtraction 33" d="M18.055,8.383H0V6.276c.07.007.142.011.215.011A1.912,1.912,0,0,0,2.149,4.4,1.913,1.913,0,0,0,.215,2.515,2.04,2.04,0,0,0,0,2.526V0H18.055V2.526a1.882,1.882,0,0,0,0,3.75V8.382Z" transform="translate(1265.653 986.771) rotate(-11)" fill="#f9f9f9"/>
    <path id="Subtraction_35" data-name="Subtraction 35" d="M18.055,8.383H0V6.276c.07.007.142.011.215.011A1.912,1.912,0,0,0,2.149,4.4,1.913,1.913,0,0,0,.215,2.515,2.04,2.04,0,0,0,0,2.526V0H18.055V2.526a1.882,1.882,0,0,0,0,3.75V8.382Z" transform="translate(1495.653 905.771) rotate(-11)" fill="#f9f9f9"/>
    <path id="Subtraction_37" data-name="Subtraction 37" d="M18.055,8.383H0V6.276c.07.007.142.011.215.011A1.912,1.912,0,0,0,2.149,4.4,1.913,1.913,0,0,0,.215,2.515,2.04,2.04,0,0,0,0,2.526V0H18.055V2.526a1.882,1.882,0,0,0,0,3.75V8.382Z" transform="translate(1733.653 988.271) rotate(-11)" fill="#f9f9f9"/>
    <path id="Subtraction_30" data-name="Subtraction 30" d="M19.949,9.262H0V6.934c.077.008.157.012.238.012A2.113,2.113,0,0,0,2.375,4.863,2.114,2.114,0,0,0,.237,2.779,2.273,2.273,0,0,0,0,2.792V0H19.949V2.792a2.079,2.079,0,0,0,0,4.143V9.262Z" transform="translate(1501.653 1310.487) rotate(-11)" fill="rgba(248,68,100,0.95)"/>
    <path id="Subtraction_32" data-name="Subtraction 32" d="M18.681,8.674H0V6.494c.072.007.147.012.222.012a1.979,1.979,0,0,0,2-1.951,1.979,1.979,0,0,0-2-1.952A2.114,2.114,0,0,0,0,2.614V0H18.681V2.614a1.947,1.947,0,0,0,0,3.879V8.673Z" transform="translate(1736.371 1200.485) rotate(-11)" fill="rgba(248,68,100,0.95)"/>
  </g>
</svg>
