<svg xmlns="http://www.w3.org/2000/svg" width="89.443" height="114" viewBox="0 0 89.443 114">
  <g id="Group_776" data-name="Group 776" transform="translate(-1600 -154)">
    <g id="Group_773" data-name="Group 773" transform="translate(1600.009 154)" opacity="0.75">
      <path id="Path_5295" data-name="Path 5295" d="M2.238,0H72.357a2.052,2.052,0,0,1,2.238,1.789V14.315a315.961,315.961,0,0,1-37.077,2.5A328.537,328.537,0,0,1,0,14.315V1.789A2.052,2.052,0,0,1,2.238,0Z" transform="translate(7.451 79.07)" fill="#fff"/>
      <path id="Rectangle_482" data-name="Rectangle 482" d="M4,0h7.092a4,4,0,0,1,4,4V61.254a0,0,0,0,1,0,0H0a0,0,0,0,1,0,0V4A4,4,0,0,1,4,0Z" transform="translate(0 51.489)" fill="#fff"/>
      <path id="Rectangle_483" data-name="Rectangle 483" d="M4,0h7.092a4,4,0,0,1,4,4V61.254a0,0,0,0,1,0,0H0a0,0,0,0,1,0,0V4A4,4,0,0,1,4,0Z" transform="translate(73.683 51.489)" fill="#fff"/>
      <path id="Rectangle_484" data-name="Rectangle 484" d="M20,0H38.591a20,20,0,0,1,20,20V79.009a0,0,0,0,1,0,0H0a0,0,0,0,1,0,0V20A20,20,0,0,1,20,0Z" transform="translate(15.092)" fill="#fff"/>
    </g>
    <path id="Path_5308" data-name="Path 5308" d="M0,.193a12.7,12.7,0,0,0,5.749,1.1A92.553,92.553,0,0,0,15.1-.2l.017,32.748H0Z" transform="translate(1600 235.453)" fill="rgba(248,68,100,0.95)"/>
    <path id="Path_5309" data-name="Path 5309" d="M15.105-3.642A24.889,24.889,0,0,0,7.716-5.327a27.609,27.609,0,0,0-7.762.974l.029,31.468H15.1Z" transform="translate(1674.337 239.625)" fill="rgba(248,68,100,0.95)"/>
    <path id="Path_5310" data-name="Path 5310" d="M-.386-.59A48.66,48.66,0,0,1,12.982-1.654C17.442-1.42,36.658.942,42.3.942c14.8,0,16.764-1.58,16.764-1.58V12.393S42.746,14,27.945,14a264.487,264.487,0,0,1-28.087-1.6Z" transform="translate(1615.259 235.887)" fill="rgba(248,68,100,0.95)"/>
  </g>
</svg>
