<svg xmlns="http://www.w3.org/2000/svg" width="9.466" height="11.951" viewBox="0 0 9.466 11.951">
  <g id="Group_960" data-name="Group 960" transform="translate(-245.062 -154.025)">
    <path id="Subtraction_21" data-name="Subtraction 21" d="M-3741.368,4316.008H-3750V4315a1.008,1.008,0,0,0,.1.005.914.914,0,0,0,.925-.9.915.915,0,0,0-.925-.9.9.9,0,0,0-.1.006V4312h8.631v1.208a.909.909,0,0,0-.822.9.909.909,0,0,0,.822.9v1.007Z" transform="matrix(0.946, 0.326, -0.326, 0.946, 5195.91, -2702.17)" fill="#f9f9f9"/>
    <path id="Subtraction_22" data-name="Subtraction 22" d="M-3742.15,4315.925H-3750v-.986c.03,0,.062,0,.093,0a.863.863,0,0,0,.841-.883.864.864,0,0,0-.841-.883.846.846,0,0,0-.093.005V4312h7.85v1.183a.868.868,0,0,0-.748.878.869.869,0,0,0,.748.878v.986Z" transform="translate(3104.406 -4786.188) rotate(-11)" fill="#f9f9f9"/>
  </g>
</svg>
