<svg xmlns="http://www.w3.org/2000/svg" width="18" height="24" viewBox="0 0 18 24">
  <g id="Group_779" data-name="Group 779" opacity="0.75">
    <path id="Path_5295" data-name="Path 5295" d="M.462,0H14.942A.419.419,0,0,1,15.4.354V2.83a68.09,68.09,0,0,1-7.656.494A70.8,70.8,0,0,1,0,2.83V.354A.419.419,0,0,1,.462,0Z" transform="translate(1.54 16.328)" fill="rgba(248,68,100,0.95)" opacity="0.9"/>
    <path id="Rectangle_482" data-name="Rectangle 482" d="M1.5,0h0A1.5,1.5,0,0,1,3,1.5V14a0,0,0,0,1,0,0H0a0,0,0,0,1,0,0V1.5A1.5,1.5,0,0,1,1.5,0Z" transform="translate(0 10)" fill="rgba(248,68,100,0.95)"/>
    <path id="Rectangle_483" data-name="Rectangle 483" d="M1.5,0h0A1.5,1.5,0,0,1,3,1.5V14a0,0,0,0,1,0,0H0a0,0,0,0,1,0,0V1.5A1.5,1.5,0,0,1,1.5,0Z" transform="translate(15 10)" fill="rgba(248,68,100,0.95)"/>
    <path id="Rectangle_484" data-name="Rectangle 484" d="M6,0H6a6,6,0,0,1,6,6V17a0,0,0,0,1,0,0H0a0,0,0,0,1,0,0V6A6,6,0,0,1,6,0Z" transform="translate(3)" fill="rgba(248,68,100,0.95)"/>
  </g>
</svg>
