<svg xmlns="http://www.w3.org/2000/svg" width="165.477" height="130.336" viewBox="0 0 165.477 130.336">
  <g id="Group_197" data-name="Group 197" transform="matrix(0.995, -0.105, 0.105, 0.995, -3086.206, 3399.411)" opacity="0.3">
    <path id="Path_3843" data-name="Path 3843" d="M276.94,123.12c-1.28-.75-3.06-.65-5,.48a15.69,15.69,0,0,0-7.13,12.29c0,2.22.76,3.79,2,4.55.42.25,5.43,2.82,5.82,3.05,1.29.75,3.06.65,5-.48a15.71,15.71,0,0,0,7.13-12.29c0-2.24-.77-3.81-2-4.56C282.33,125.91,277.33,123.35,276.94,123.12Z" transform="matrix(-0.613, -0.785, -0.662, 0.45, 3815.87, -2773.67)" fill="#455a64"/>
    <path id="Path_3844" data-name="Path 3844" d="M265.62,139.25a1.131,1.131,0,0,0,.12.18l-.14-.19h0Z" transform="matrix(-0.613, -0.785, -0.662, 0.45, 3815.87, -2773.67)" fill="#455a64"/>
    <path id="Path_3845" data-name="Path 3845" d="M270.54,138.9c0,4.53,3.17,6.37,7.1,4.11a15.71,15.71,0,0,0,7.13-12.29c0-4.53-3.17-6.37-7.1-4.11A15.69,15.69,0,0,0,270.54,138.9Z" transform="matrix(-0.613, -0.785, -0.662, 0.45, 3815.87, -2773.67)" fill="#263238"/>
    <path id="Path_3846" data-name="Path 3846" d="M272.44,143.39h-.12l-.12-.06-.1-.06-.21-.11-.48-.27c-.56-.31-3.43-1.72-3.92-2l-.4-.22-.3-.18a2.36,2.36,0,0,1-.45-.33,1.07,1.07,0,0,1-.19-.18,3.079,3.079,0,0,1-.3-.33,1.529,1.529,0,0,1-.11-.16,1.131,1.131,0,0,1-.12-.18h0a6.33,6.33,0,0,1-.81-3.35,13,13,0,0,1,1-4.69c.08-.2.16-.4.25-.59s.12-.3.19-.44l.21-.43h0l5.72,3.08a13.88,13.88,0,0,0-1.61,6.09,6.37,6.37,0,0,0,.79,3.32,3.67,3.67,0,0,0,1.08,1.09Z" transform="matrix(-0.613, -0.785, -0.662, 0.45, 3815.87, -2773.67)" opacity="0.15"/>
    <path id="Path_3847" data-name="Path 3847" d="M308.64,146.94a10.66,10.66,0,0,1-4.84,8.34,4.38,4.38,0,0,1-2.16.66,2.54,2.54,0,0,1-1.24-.32h0l-24.9-14.08h-.07a2.482,2.482,0,0,1-.37-.29,3.72,3.72,0,0,1-1-2.82,10.68,10.68,0,0,1,4.84-8.35,3.73,3.73,0,0,1,2.94-.53,2.78,2.78,0,0,1,.4.16h0l.13.08,24.85,14.06h0a3.39,3.39,0,0,1,1.42,3.09Z" transform="matrix(-0.613, -0.785, -0.662, 0.45, 3815.87, -2773.67)" fill="#37474f"/>
    <path id="Path_3848" data-name="Path 3848" d="M298.39,148.61a9.25,9.25,0,0,0-.7,3.37,4.519,4.519,0,0,0,.58,2.41l-3.22-1.86h-.07l-17.65-9.9-.08-.05h0l-1.71-1h0a3.41,3.41,0,0,1-1.38-3.11,8.7,8.7,0,0,1,.66-3.17Z" transform="matrix(-0.613, -0.785, -0.662, 0.45, 3815.87, -2773.67)" opacity="0.15"/>
    <path id="Path_3849" data-name="Path 3849" d="M385.11,118h0a1.14,1.14,0,0,0-.67-.94l-58-33.51a3.62,3.62,0,0,0-3.27,0l-36.58,21.12a1.15,1.15,0,0,0-.68.94h0v14.16a1.17,1.17,0,0,0,.68,1l58,33.5a3.62,3.62,0,0,0,3.27,0l36.58-21.12a1.14,1.14,0,0,0,.67-.94h0v-6.53l.26-.14a2,2,0,0,1-.26-1ZM379.94,121.54ZM291.05,109.15Z" transform="matrix(-0.613, -0.785, -0.662, 0.45, 3815.87, -2773.67)" fill="#37474f"/>
    <path id="Path_3850" data-name="Path 3850" d="M286.55,106.56l58,33.51a3.62,3.62,0,0,0,3.27,0L384.44,119a1,1,0,0,0,0-1.89l-58-33.51a3.62,3.62,0,0,0-3.27,0l-36.58,21.12a1,1,0,0,0-.04,1.84Z" transform="matrix(-0.613, -0.785, -0.662, 0.45, 3815.87, -2773.67)" fill="#455a64"/>
    <path id="Path_3851" data-name="Path 3851" d="M344.59,140.06l-58-33.5a1.14,1.14,0,0,1-.67-.94v14.15a1.16,1.16,0,0,0,.67,1l58,33.5a3.22,3.22,0,0,0,1.63.39v-14.2a3.23,3.23,0,0,1-1.63-.4Z" transform="matrix(-0.613, -0.785, -0.662, 0.45, 3815.87, -2773.67)" fill="#263238"/>
    <path id="Path_3852" data-name="Path 3852" d="M397.38,134.59V173.3a3.66,3.66,0,0,1-1.63,2.83l-35.64,20.56a3.63,3.63,0,0,1-3.26,0l-1-.58-2.18-1.26v-.51l-2.67-1.5-.43.25h0l-2.19-1.26-.43-.25h0l-.11-.06a2.92,2.92,0,0,1-.91-.85,3.22,3.22,0,0,1-.54-1l-.07-.22a2.56,2.56,0,0,1-.12-.76v-40.6l.26-.15,38.89-22.45a1.88,1.88,0,0,0,.69.68l9.69,5.59a3.66,3.66,0,0,1,1.65,2.83Z" transform="matrix(-0.613, -0.785, -0.662, 0.45, 3815.87, -2773.67)" fill="#455a64"/>
    <path id="Path_3853" data-name="Path 3853" d="M360.11,196.69a3.28,3.28,0,0,1-1.63.45,3.38,3.38,0,0,1-1.63-.44l-1-.58-2.18-1.26v-.51L351,192.84l-.43.25h0l-2.19-1.26-.43-.25h0a3.44,3.44,0,0,1-1-.91,3.22,3.22,0,0,1-.54-1l-.07-.22a3.57,3.57,0,0,1-.12-.92l-.16-48.06.16,6.54a1.82,1.82,0,0,0,.26.94,2,2,0,0,0,.68.69l11.8,6.81a3.43,3.43,0,0,0-.48,1.61v38.7Z" transform="matrix(-0.613, -0.785, -0.662, 0.45, 3815.87, -2773.67)" fill="#263238"/>
    <path id="Path_3854" data-name="Path 3854" d="M294.25,158.78a3.6,3.6,0,0,1-1.64-2.83v-14l56.68,32.72V190.6Z" transform="matrix(-0.613, -0.785, -0.662, 0.45, 3815.87, -2773.67)" fill="#263238"/>
    <path id="Path_3855" data-name="Path 3855" d="M395.74,133.65l-35.62,20.57a3.6,3.6,0,0,0-1.64,2.83v38.7c0,1,.73,1.46,1.64.94l35.62-20.57a3.58,3.58,0,0,0,1.64-2.83v-38.7C397.38,133.55,396.65,133.13,395.74,133.65Z" transform="matrix(-0.613, -0.785, -0.662, 0.45, 3815.87, -2773.67)" fill="#37474f"/>
    <path id="Path_3856" data-name="Path 3856" d="M292.58,122.43a3.49,3.49,0,0,0-1.53,2.77v21a3.62,3.62,0,0,0,1.63,2.83l48.84,28.2a3.39,3.39,0,0,0,3.17,0,3.71,3.71,0,0,0,1.53-2.85V153.44a3.62,3.62,0,0,0-1.63-2.83l-48.84-28.13a3.51,3.51,0,0,0-3.17-.05Z" transform="matrix(-0.613, -0.785, -0.662, 0.45, 3815.87, -2773.67)" fill="#f84464"/>
    <path id="Path_3858" data-name="Path 3858" d="M292.68,124.25l48.85,28.2a3.62,3.62,0,0,1,1.63,2.83v21c0,1-.73,1.46-1.64.94L292.68,149a3.62,3.62,0,0,1-1.63-2.83v-21C291.05,124.16,291.78,123.73,292.68,124.25Z" transform="matrix(-0.613, -0.785, -0.662, 0.45, 3815.87, -2773.67)" fill="#f84464"/>
    <path id="Path_3861" data-name="Path 3861" d="M310.42,138l13.36,7.71a2.14,2.14,0,0,1,1,1.7v1.26c0,.63-.44.88-1,.57l-13.34-7.71a2.16,2.16,0,0,1-1-1.69V138.6A.62.62,0,0,1,310.42,138Z" transform="matrix(-0.613, -0.785, -0.662, 0.45, 3815.87, -2773.67)" fill="#e6e6e6"/>
    <path id="Path_3862" data-name="Path 3862" d="M309.43,161.41a1.79,1.79,0,0,0-.81-1.41l-3-1.71a.59.59,0,0,0-.58-.06l-1.53.89a.58.58,0,0,0-.24.53v1.65a1.82,1.82,0,0,0,.82,1.42l3,1.7a.55.55,0,0,0,.57.06l1.54-.88a.6.6,0,0,0,.24-.53Z" transform="matrix(-0.613, -0.785, -0.662, 0.45, 3815.87, -2773.67)" fill="#ba68c8"/>
    <path id="Path_3863" data-name="Path 3863" d="M304.13,159.18l3,1.7a1.81,1.81,0,0,1,.81,1.42V164c0,.52-.36.73-.81.47l-3-1.7a1.82,1.82,0,0,1-.82-1.42V159.7C303.31,159.13,303.68,158.92,304.13,159.18Z" transform="matrix(-0.613, -0.785, -0.662, 0.45, 3815.87, -2773.67)" fill="#ba68c8"/>
    <path id="Path_3864" data-name="Path 3864" d="M309.43,161.41v1.66a.59.59,0,0,1-.24.53l-1.48.85a.63.63,0,0,0,.19-.5V162.3a1.71,1.71,0,0,0-.23-.8l1.53-.89a1.77,1.77,0,0,1,.23.8Z" transform="matrix(-0.613, -0.785, -0.662, 0.45, 3815.87, -2773.67)" opacity="0.15"/>
    <path id="Path_3865" data-name="Path 3865" d="M309.2,160.61l-1.53.89a1.63,1.63,0,0,0-.58-.61l-3-1.71a.61.61,0,0,0-.54-.08c.26-.15,1.35-.79,1.5-.86a.55.55,0,0,1,.57,0l3,1.71A1.7,1.7,0,0,1,309.2,160.61Z" transform="matrix(-0.613, -0.785, -0.662, 0.45, 3815.87, -2773.67)" opacity="0.25"/>
    <path id="Path_3866" data-name="Path 3866" d="M318.63,166.73a1.82,1.82,0,0,0-.82-1.42l-2.95-1.7a.57.57,0,0,0-.58-.06l-1.54.89a.58.58,0,0,0-.23.52v1.66a1.78,1.78,0,0,0,.82,1.41l2.95,1.71a.56.56,0,0,0,.58,0l1.53-.88a.58.58,0,0,0,.24-.53Z" transform="matrix(-0.613, -0.785, -0.662, 0.45, 3815.87, -2773.67)" fill="#f84464"/>
    <path id="Path_3867" data-name="Path 3867" d="M313.33,164.49l2.95,1.71a1.8,1.8,0,0,1,.82,1.41v1.66c0,.52-.37.73-.82.47L313.33,168a1.78,1.78,0,0,1-.82-1.41V165C312.51,164.44,312.87,164.23,313.33,164.49Z" transform="matrix(-0.613, -0.785, -0.662, 0.45, 3815.824, -2773.709)" fill="#f84464"/>
    <path id="Path_3868" data-name="Path 3868" d="M318.63,166.73v1.65a.57.57,0,0,1-.24.53l-1.48.85a.61.61,0,0,0,.19-.5v-1.65a1.67,1.67,0,0,0-.24-.8l1.54-.88A1.74,1.74,0,0,1,318.63,166.73Z" transform="matrix(-0.613, -0.785, -0.662, 0.45, 3815.87, -2773.67)" opacity="0.15"/>
    <path id="Path_3869" data-name="Path 3869" d="M318.4,165.93l-1.54.88a1.62,1.62,0,0,0-.58-.61l-3-1.7a.59.59,0,0,0-.54-.09l1.5-.86a.59.59,0,0,1,.58,0l2.95,1.71A1.85,1.85,0,0,1,318.4,165.93Z" transform="matrix(-0.613, -0.785, -0.662, 0.45, 3815.87, -2773.67)" opacity="0.25"/>
    <path id="Path_3870" data-name="Path 3870" d="M327.83,172a1.8,1.8,0,0,0-.82-1.41l-3-1.71a.58.58,0,0,0-.57-.06l-1.54.89a.58.58,0,0,0-.24.53v1.65a1.82,1.82,0,0,0,.82,1.42l3,1.7a.58.58,0,0,0,.57.06l1.54-.89a.55.55,0,0,0,.24-.52Z" transform="matrix(-0.613, -0.785, -0.662, 0.45, 3815.885, -2773.75)" fill="#f84464"/>
    <path id="Path_3871" data-name="Path 3871" d="M322.52,169.81l3,1.7a1.81,1.81,0,0,1,.81,1.42v1.65c0,.52-.36.73-.81.47l-3-1.7a1.82,1.82,0,0,1-.82-1.42v-1.65C321.7,169.76,322.07,169.55,322.52,169.81Z" transform="matrix(-0.613, -0.785, -0.662, 0.45, 3815.406, -2773.761)" fill="#f84464"/>
    <path id="Path_3872" data-name="Path 3872" d="M327.83,172v1.66a.56.56,0,0,1-.25.52l-1.48.86a.59.59,0,0,0,.19-.5v-1.65a1.71,1.71,0,0,0-.23-.8l1.53-.89a1.79,1.79,0,0,1,.24.8Z" transform="matrix(-0.613, -0.785, -0.662, 0.45, 3815.87, -2773.67)" opacity="0.15"/>
    <path id="Path_3873" data-name="Path 3873" d="M327.59,171.24l-1.53.89a1.56,1.56,0,0,0-.58-.61l-3-1.71a.61.61,0,0,0-.54-.08c.26-.15,1.36-.79,1.5-.86a.55.55,0,0,1,.57,0l3,1.71a1.7,1.7,0,0,1,.58.66Z" transform="matrix(-0.613, -0.785, -0.662, 0.45, 3815.87, -2773.67)" opacity="0.25"/>
    <path id="Path_3874" data-name="Path 3874" d="M355.85,169.69v26.43l-2.18-1.26v-.51L351,192.84l-.43.25h0l-2.19-1.26V165.4a1.032,1.032,0,0,1,1.63-1l4.17,2.41a3.62,3.62,0,0,1,1.67,2.88Z" transform="matrix(-0.613, -0.785, -0.662, 0.45, 3815.87, -2773.67)" fill="#455a64"/>
    <path id="Path_3875" data-name="Path 3875" d="M353.67,185v9.33L351,192.84l-.43.25h0v-9.84c0-.34.18-.51.46-.45a.67.67,0,0,1,.18.07l1.77,1A1.45,1.45,0,0,1,353.67,185Z" transform="matrix(-0.613, -0.785, -0.662, 0.45, 3815.87, -2773.67)" fill="#263238"/>
    <path id="Path_3876" data-name="Path 3876" d="M353.67,185v9.33L351,192.84V183a.641.641,0,0,1,0-.2.671.671,0,0,1,.18.07l1.77,1A1.45,1.45,0,0,1,353.67,185Z" transform="matrix(-0.613, -0.785, -0.662, 0.45, 3815.87, -2773.67)" fill="#37474f"/>
    <path id="Path_3877" data-name="Path 3877" d="M351.94,184.72l-.34.2h0a.43.43,0,0,0-.06.24,1.13,1.13,0,0,0,.52.9.47.47,0,0,0,.24.07h0l.33-.19h0a.36.36,0,0,0,.16-.34,1.16,1.16,0,0,0-.52-.9A.37.37,0,0,0,351.94,184.72Z" transform="matrix(-0.613, -0.785, -0.662, 0.45, 3815.87, -2773.67)" fill="#ba68c8"/>
    <path id="Path_3878" data-name="Path 3878" d="M351.94,184.72l-.34.2h0a.43.43,0,0,0-.06.24,1.13,1.13,0,0,0,.52.9.47.47,0,0,0,.24.07h0l.33-.19h0a.36.36,0,0,0,.16-.34,1.16,1.16,0,0,0-.52-.9A.37.37,0,0,0,351.94,184.72Z" transform="matrix(-0.613, -0.785, -0.662, 0.45, 3815.87, -2773.67)" opacity="0.15"/>
    <path id="Path_3879" data-name="Path 3879" d="M352.49,185.85c0,.34-.23.47-.52.31a1.15,1.15,0,0,1-.52-.91c0-.33.23-.46.52-.3A1.15,1.15,0,0,1,352.49,185.85Z" transform="matrix(-0.613, -0.785, -0.662, 0.45, 3815.87, -2773.67)" fill="#ba68c8"/>
    <path id="Path_3880" data-name="Path 3880" d="M351.7,169.4l-.74.43v.06a1.08,1.08,0,0,0-.13.54,2.52,2.52,0,0,0,1.15,2,1,1,0,0,0,.53.15v.07l.75-.43h0a.82.82,0,0,0,.33-.74,2.52,2.52,0,0,0-1.14-2,.81.81,0,0,0-.75-.08Z" transform="matrix(-0.613, -0.785, -0.662, 0.45, 3815.87, -2773.67)" fill="#ba68c8"/>
    <path id="Path_3881" data-name="Path 3881" d="M351.7,169.4l-.74.43v.06a1.08,1.08,0,0,0-.13.54,2.52,2.52,0,0,0,1.15,2,1,1,0,0,0,.53.15v.07l.75-.43h0a.82.82,0,0,0,.33-.74,2.52,2.52,0,0,0-1.14-2,.81.81,0,0,0-.75-.08Z" transform="matrix(-0.613, -0.785, -0.662, 0.45, 3815.87, -2773.67)" opacity="0.15"/>
    <path id="Path_3882" data-name="Path 3882" d="M352.91,171.89c0,.73-.51,1-1.14.66a2.54,2.54,0,0,1-1.15-2c0-.73.52-1,1.15-.66a2.52,2.52,0,0,1,1.14,2Z" transform="matrix(-0.613, -0.785, -0.662, 0.45, 3815.87, -2773.67)" fill="#ba68c8"/>
    <path id="Path_3883" data-name="Path 3883" d="M351.94,188.3l-.34.19h0a.49.49,0,0,0-.06.25,1.15,1.15,0,0,0,.52.9.47.47,0,0,0,.24.07h0l.33-.19h0a.38.38,0,0,0,.16-.34,1.16,1.16,0,0,0-.52-.9.37.37,0,0,0-.33.02Z" transform="matrix(-0.613, -0.785, -0.662, 0.45, 3815.87, -2773.67)" fill="#f84464"/>
    <path id="Path_3885" data-name="Path 3885" d="M352.49,189.43c0,.34-.23.47-.52.3a1.13,1.13,0,0,1-.52-.9c0-.33.23-.46.52-.3a1.15,1.15,0,0,1,.52.9Z" transform="matrix(-0.613, -0.785, -0.662, 0.45, 3815.87, -2773.67)" fill="#f84464"/>
    <path id="Path_3886" data-name="Path 3886" d="M351.87,174.68l-.46.27h0a.68.68,0,0,0-.08.34,1.55,1.55,0,0,0,.71,1.22.62.62,0,0,0,.32.1h0l.46-.27h0a.51.51,0,0,0,.2-.46,1.56,1.56,0,0,0-.7-1.22.51.51,0,0,0-.45.02Z" transform="matrix(-0.613, -0.785, -0.662, 0.45, 3815.87, -2773.67)" fill="#263238"/>
    <path id="Path_3887" data-name="Path 3887" d="M352.61,176.22c0,.45-.31.63-.7.41a1.59,1.59,0,0,1-.71-1.23c0-.45.32-.63.71-.41a1.57,1.57,0,0,1,.7,1.23Z" transform="matrix(-0.613, -0.785, -0.662, 0.45, 3815.87, -2773.67)" fill="#37474f"/>
    <path id="Path_3888" data-name="Path 3888" d="M351.87,178.55l-.46.26h0a.68.68,0,0,0-.08.34,1.55,1.55,0,0,0,.71,1.22.62.62,0,0,0,.32.1h0l.46-.27h0a.51.51,0,0,0,.2-.46,1.54,1.54,0,0,0-.7-1.22.49.49,0,0,0-.45.03Z" transform="matrix(-0.613, -0.785, -0.662, 0.45, 3815.87, -2773.67)" fill="#263238"/>
    <path id="Path_3889" data-name="Path 3889" d="M352.61,180.09c0,.45-.31.63-.7.41a1.59,1.59,0,0,1-.71-1.23c0-.45.32-.63.71-.41a1.57,1.57,0,0,1,.7,1.23Z" transform="matrix(-0.613, -0.785, -0.662, 0.45, 3815.87, -2773.67)" fill="#37474f"/>
    <path id="Path_3890" data-name="Path 3890" d="M365.37,147.15a1,1,0,0,0-.46-.77l-4.34-2.49a1,1,0,0,0-.92,0l-6,3.44a.94.94,0,0,0-.44.77,1,1,0,0,0,.48.78l4.32,2.48a1,1,0,0,0,.92,0l6-3.45A1,1,0,0,0,365.37,147.15Z" transform="matrix(-0.613, -0.785, -0.662, 0.45, 3815.87, -2773.67)" fill="#ba68c8"/>
    <path id="Path_3891" data-name="Path 3891" d="M365.37,147.15a1,1,0,0,0-.46-.77l-4.34-2.49a1,1,0,0,0-.92,0l-6,3.44a.94.94,0,0,0-.44.77,1,1,0,0,0,.48.78l4.32,2.48a1,1,0,0,0,.92,0l6-3.45A1,1,0,0,0,365.37,147.15Z" transform="matrix(-0.613, -0.785, -0.662, 0.45, 3815.87, -2773.67)" fill="#fff" opacity="0.2"/>
    <path id="Path_3892" data-name="Path 3892" d="M364.91,146.91l-6,3.44a1,1,0,0,1-.92,0l-4.34-2.49c-.25-.15-.25-.39,0-.53l6-3.44a1,1,0,0,1,.92,0l4.34,2.49C365.17,146.53,365.17,146.77,364.91,146.91Z" transform="matrix(-0.613, -0.785, -0.662, 0.45, 3815.87, -2773.67)" fill="#ba68c8"/>
    <path id="Path_3893" data-name="Path 3893" d="M364.91,146.91l-6,3.44a1,1,0,0,1-.92,0l-4.34-2.49c-.25-.15-.25-.39,0-.53l6-3.44a1,1,0,0,1,.92,0l4.34,2.49C365.17,146.53,365.17,146.77,364.91,146.91Z" transform="matrix(-0.613, -0.785, -0.662, 0.45, 3815.87, -2773.67)" fill="#fff" opacity="0.5"/>
    <path id="Path_3894" data-name="Path 3894" d="M358,151.36l-4.32-2.48a1,1,0,0,1-.48-.78.92.92,0,0,1,.38-.73c-.19.15-.17.35.06.49l4.34,2.49a.81.81,0,0,0,.46.11h0v1A.9.9,0,0,1,358,151.36Z" transform="matrix(-0.613, -0.785, -0.662, 0.45, 3815.87, -2773.67)" opacity="0.15"/>
    <path id="Path_3895" data-name="Path 3895" d="M363.39,145.17v1.11a.74.74,0,0,1-.33.57l-4.46,2.57a.7.7,0,0,1-.66,0L355.53,148a.61.61,0,0,1,0-1.07l2.41-1.39a2.7,2.7,0,0,0,.58-.48l1.55-1.78a.47.47,0,0,1,.58-.1l2.41,1.39a.74.74,0,0,1,.33.6Z" transform="matrix(-0.613, -0.785, -0.662, 0.45, 3815.87, -2773.67)" fill="#ba68c8"/>
    <path id="Path_3896" data-name="Path 3896" d="M363.39,145.17v1.11a.74.74,0,0,1-.33.57l-4.46,2.57a.7.7,0,0,1-.66,0L355.53,148a.61.61,0,0,1,0-1.07l2.41-1.39a2.7,2.7,0,0,0,.58-.48l1.55-1.78a.47.47,0,0,1,.58-.1l2.41,1.39a.74.74,0,0,1,.33.6Z" transform="matrix(-0.613, -0.785, -0.662, 0.45, 3815.87, -2773.67)" opacity="0.3"/>
    <path id="Path_3897" data-name="Path 3897" d="M358.6,148.73l2.41-1.39a2.64,2.64,0,0,0,.57-.48l1.56-1.79a.3.3,0,0,0-.08-.47l-2.41-1.39a.47.47,0,0,0-.58.1l-1.55,1.78a2.7,2.7,0,0,1-.58.48L355.53,147c-.18.1-.18.27,0,.38l2.42,1.39A.74.74,0,0,0,358.6,148.73Z" transform="matrix(-0.613, -0.785, -0.662, 0.45, 3815.87, -2773.67)" fill="#ba68c8"/>
    <path id="Path_3898" data-name="Path 3898" d="M363.06,144.6l-2.41-1.39a.47.47,0,0,0-.58.1l-1.55,1.78a2.441,2.441,0,0,1-.28.27l3.06,1.77a2.439,2.439,0,0,0,.28-.27l1.56-1.79a.3.3,0,0,0-.08-.47Z" transform="matrix(-0.613, -0.785, -0.662, 0.45, 3815.87, -2773.67)" opacity="0.15"/>
    <path id="Path_3899" data-name="Path 3899" d="M358.24,148.8v.7a.74.74,0,0,1-.3-.08l-2.4-1.39a.71.71,0,0,1-.34-.53.67.67,0,0,1,.28-.49c-.12.09-.1.24.06.33l2.4,1.39A.73.73,0,0,0,358.24,148.8Z" transform="matrix(-0.613, -0.785, -0.662, 0.45, 3815.87, -2773.67)" opacity="0.15"/>
    <path id="Path_3900" data-name="Path 3900" d="M361.3,147.13l-3.06-1.77a2.37,2.37,0,0,1-.3.21L355.53,147c-.18.1-.18.27,0,.38l2.42,1.39a.74.74,0,0,0,.65,0l2.41-1.39Z" transform="matrix(-0.613, -0.785, -0.662, 0.45, 3815.87, -2773.67)" opacity="0.05"/>
    <path id="Path_3901" data-name="Path 3901" d="M342.13,130.78V130h.19a2.63,2.63,0,0,1,1-1,6.4,6.4,0,0,1,5.78,0,2.56,2.56,0,0,1,1,1h.19v.78h0a2,2,0,0,1-1.2,1.67,6.4,6.4,0,0,1-5.78,0A2,2,0,0,1,342.13,130.78Z" transform="matrix(-0.613, -0.785, -0.662, 0.45, 3815.87, -2773.67)" fill="#263238"/>
    <path id="Path_3902" data-name="Path 3902" d="M349.11,131.67c1.6-.92,1.6-2.42,0-3.34a6.4,6.4,0,0,0-5.78,0c-1.59.92-1.59,2.42,0,3.34A6.4,6.4,0,0,0,349.11,131.67Z" transform="matrix(-0.613, -0.785, -0.662, 0.45, 3815.87, -2773.67)" fill="#37474f"/>
    <path id="Path_3903" data-name="Path 3903" d="M343.05,129.69v-1.35h.15a2,2,0,0,1,.78-.75,5,5,0,0,1,4.48,0,2.05,2.05,0,0,1,.79.75h.14v1.35h0a1.58,1.58,0,0,1-.93,1.3,5,5,0,0,1-4.48,0,1.58,1.58,0,0,1-.93-1.3Z" transform="matrix(-0.613, -0.785, -0.662, 0.45, 3815.87, -2773.67)" fill="#f84464"/>
    <path id="Path_3905" data-name="Path 3905" d="M348.46,129.64c1.24-.72,1.24-1.87,0-2.59a5,5,0,0,0-4.48,0c-1.24.72-1.24,1.87,0,2.59a5,5,0,0,0,4.48,0Z" transform="matrix(-0.613, -0.785, -0.662, 0.45, 3815.829, -2773.826)" fill="#f84464"/>
    <path id="Path_3906" data-name="Path 3906" d="M358.13,126.15l-3.35,1.94a1.38,1.38,0,0,1-1.22,0l-3.35-1.94a.37.37,0,0,1,0-.7l3.35-1.93a1.32,1.32,0,0,1,1.22,0l3.35,1.93a.37.37,0,0,1,0,.7Z" transform="matrix(-0.613, -0.785, -0.662, 0.45, 3815.87, -2773.67)" fill="#263238"/>
    <path id="Path_3907" data-name="Path 3907" d="M358.13,126.15l-3.35,1.94a1.38,1.38,0,0,1-1.22,0l-3.35-1.94,3.35-1.93a1.38,1.38,0,0,1,1.22,0Z" transform="matrix(-0.613, -0.785, -0.662, 0.45, 3815.87, -2773.67)" fill="#37474f"/>
    <path id="Path_3908" data-name="Path 3908" d="M352.71,126.11v-.62h.07a.93.93,0,0,1,.36-.35,2.33,2.33,0,0,1,2.06,0,.81.81,0,0,1,.36.35h.07v.62h0a.73.73,0,0,1-.43.6,2.27,2.27,0,0,1-2.06,0,.73.73,0,0,1-.43-.6Z" transform="matrix(-0.613, -0.785, -0.662, 0.45, 3815.87, -2773.67)" fill="#ba68c8"/>
    <path id="Path_3909" data-name="Path 3909" d="M352.71,126.11v-.62h.07a.93.93,0,0,1,.36-.35,2.33,2.33,0,0,1,2.06,0,.81.81,0,0,1,.36.35h.07v.62h0a.73.73,0,0,1-.43.6,2.27,2.27,0,0,1-2.06,0,.73.73,0,0,1-.43-.6Z" transform="matrix(-0.613, -0.785, -0.662, 0.45, 3815.87, -2773.67)" opacity="0.15"/>
    <path id="Path_3910" data-name="Path 3910" d="M355.2,126.09a.63.63,0,0,0,0-1.2,2.33,2.33,0,0,0-2.06,0,.63.63,0,0,0,0,1.2A2.33,2.33,0,0,0,355.2,126.09Z" transform="matrix(-0.613, -0.785, -0.662, 0.45, 3815.87, -2773.67)" fill="#ba68c8"/>
    <path id="Path_3911" data-name="Path 3911" d="M364.72,122.35l-3.35,1.93a1.38,1.38,0,0,1-1.22,0l-3.35-1.93c-.33-.2-.33-.51,0-.7l3.35-1.94a1.38,1.38,0,0,1,1.22,0l3.35,1.94C365.06,121.84,365.06,122.15,364.72,122.35Z" transform="matrix(-0.613, -0.785, -0.662, 0.45, 3815.87, -2773.67)" fill="#263238"/>
    <path id="Path_3912" data-name="Path 3912" d="M364.72,122.35l-3.35,1.93a1.38,1.38,0,0,1-1.22,0l-3.35-1.93,3.35-1.93a1.32,1.32,0,0,1,1.22,0Z" transform="matrix(-0.613, -0.785, -0.662, 0.45, 3815.87, -2773.67)" fill="#37474f"/>
    <path id="Path_3913" data-name="Path 3913" d="M359.3,122.31v-.62h.07a.93.93,0,0,1,.36-.35,2.27,2.27,0,0,1,2.06,0,.81.81,0,0,1,.36.35h.07v.62h0a.71.71,0,0,1-.43.59,2.27,2.27,0,0,1-2.06,0,.73.73,0,0,1-.43-.59Z" transform="matrix(-0.613, -0.785, -0.662, 0.45, 3815.87, -2773.67)" fill="#ba68c8"/>
    <path id="Path_3914" data-name="Path 3914" d="M359.3,122.31v-.62h.07a.93.93,0,0,1,.36-.35,2.27,2.27,0,0,1,2.06,0,.81.81,0,0,1,.36.35h.07v.62h0a.71.71,0,0,1-.43.59,2.27,2.27,0,0,1-2.06,0,.73.73,0,0,1-.43-.59Z" transform="matrix(-0.613, -0.785, -0.662, 0.45, 3815.87, -2773.67)" opacity="0.15"/>
    <path id="Path_3915" data-name="Path 3915" d="M361.79,122.28a.63.63,0,0,0,0-1.19,2.27,2.27,0,0,0-2.06,0,.63.63,0,0,0,0,1.19,2.27,2.27,0,0,0,2.06,0Z" transform="matrix(-0.613, -0.785, -0.662, 0.45, 3815.87, -2773.67)" fill="#ba68c8"/>
    <path id="Path_3916" data-name="Path 3916" d="M392.88,152.29h0l-.39-.23c-2.29-1.2-5.39-1-8.82,1-7.07,4.06-12.81,14-12.82,22.12a13,13,0,0,0,.55,4,7.77,7.77,0,0,0,2.29,3.65,7.062,7.062,0,0,0,.78.57h.05l.22.12,8.58,5a6.671,6.671,0,0,1-1-.76c-1.67-1.53-2.65-4.09-2.65-7.48,0-8.15,5.76-18.06,12.83-22.12,2.94-1.68,5.64-2.1,7.8-1.41a5.291,5.291,0,0,1,1,.43Z" transform="matrix(-0.613, -0.785, -0.662, 0.45, 3815.87, -2773.67)" fill="#f84464"/>
    <path id="Path_3918" data-name="Path 3918" d="M373.68,182.84a6.227,6.227,0,0,0,.78.57l-4.52-2.63h-.05c-2.27-1.36-3.67-4.21-3.67-8.25,0-8.15,5.76-18.05,12.83-22.11a11.62,11.62,0,0,1,5.71-1.74,6.65,6.65,0,0,1,3.33.86l4.42,2.56c-2.29-1.2-5.39-1-8.82,1-7.07,4.06-12.81,14-12.82,22.12a13,13,0,0,0,.55,4,7.62,7.62,0,0,0,2.26,3.62Z" transform="matrix(-0.613, -0.785, -0.662, 0.45, 3815.87, -2773.67)" fill="#455a64"/>
    <path id="Path_3919" data-name="Path 3919" d="M419.26,173.7c0,8.15-5.75,18.05-12.82,22.11a11.62,11.62,0,0,1-5.71,1.74,6.62,6.62,0,0,1-3.31-.85h0l-13.84-8-.18-.1a6.668,6.668,0,0,1-1-.76c-1.67-1.53-2.65-4.09-2.65-7.48,0-8.15,5.76-18.06,12.83-22.12,2.94-1.68,5.64-2.1,7.8-1.41a5.289,5.289,0,0,1,1,.43h.06l.36.21,13.69,7.94h0C417.84,166.74,419.27,169.61,419.26,173.7Z" transform="matrix(-0.613, -0.785, -0.662, 0.45, 3815.87, -2773.67)" fill="#37474f"/>
    <path id="Path_3920" data-name="Path 3920" d="M379,185a.34.34,0,0,1-.19,0l-4.84-2.78a.39.39,0,0,1,.38-.67l4.84,2.78a.4.4,0,0,1,.15.53A.42.42,0,0,1,379,185Z" transform="matrix(-0.613, -0.785, -0.662, 0.45, 3815.87, -2773.67)" fill="#37474f"/>
    <path id="Path_3921" data-name="Path 3921" d="M378,181.52a.45.45,0,0,1-.19-.05L373,178.69a.39.39,0,0,1-.14-.53.38.38,0,0,1,.53-.14l4.84,2.78a.39.39,0,0,1-.2.72Z" transform="matrix(-0.613, -0.785, -0.662, 0.45, 3815.87, -2773.67)" fill="#37474f"/>
    <path id="Path_3922" data-name="Path 3922" d="M377.65,178.26a.46.46,0,0,1-.2,0l-4.84-2.79a.38.38,0,0,1-.14-.52.39.39,0,0,1,.53-.15l4.84,2.79a.39.39,0,0,1-.19.72Z" transform="matrix(-0.613, -0.785, -0.662, 0.45, 3815.87, -2773.67)" fill="#37474f"/>
    <path id="Path_3923" data-name="Path 3923" d="M377.83,175.29a.34.34,0,0,1-.19,0l-4.84-2.78a.385.385,0,1,1,.38-.67l4.84,2.78a.4.4,0,0,1,.15.53A.42.42,0,0,1,377.83,175.29Z" transform="matrix(-0.613, -0.785, -0.662, 0.45, 3815.87, -2773.67)" fill="#37474f"/>
    <path id="Path_3924" data-name="Path 3924" d="M378.65,172.45a.34.34,0,0,1-.19,0l-4.84-2.78A.39.39,0,0,1,374,169l4.84,2.78a.351.351,0,0,1-.19.67Z" transform="matrix(-0.613, -0.785, -0.662, 0.45, 3815.87, -2773.67)" fill="#37474f"/>
    <path id="Path_3925" data-name="Path 3925" d="M379.79,169.65a.33.33,0,0,1-.19-.06l-4.85-2.78a.39.39,0,1,1,.39-.67l4.84,2.79a.37.37,0,0,1,.14.52A.38.38,0,0,1,379.79,169.65Z" transform="matrix(-0.613, -0.785, -0.662, 0.45, 3815.87, -2773.67)" fill="#37474f"/>
    <path id="Path_3926" data-name="Path 3926" d="M381.21,166.93a.49.49,0,0,1-.2-.05l-4.84-2.79a.39.39,0,0,1-.14-.53.4.4,0,0,1,.53-.14l4.84,2.79a.37.37,0,0,1,.14.52A.38.38,0,0,1,381.21,166.93Z" transform="matrix(-0.613, -0.785, -0.662, 0.45, 3815.87, -2773.67)" fill="#37474f"/>
    <path id="Path_3927" data-name="Path 3927" d="M382.88,164.36a.36.36,0,0,1-.2-.06l-4.84-2.78a.39.39,0,0,1-.14-.53.4.4,0,0,1,.53-.14l4.84,2.79a.39.39,0,0,1-.19.72Z" transform="matrix(-0.613, -0.785, -0.662, 0.45, 3815.87, -2773.67)" fill="#37474f"/>
    <path id="Path_3928" data-name="Path 3928" d="M384.76,162a.41.41,0,0,1-.19-.05l-4.85-2.79a.39.39,0,0,1-.14-.52.4.4,0,0,1,.53-.15l4.84,2.79a.38.38,0,0,1,.14.53A.39.39,0,0,1,384.76,162Z" transform="matrix(-0.613, -0.785, -0.662, 0.45, 3815.87, -2773.67)" fill="#37474f"/>
    <path id="Path_3929" data-name="Path 3929" d="M386.83,159.88a.35.35,0,0,1-.2,0l-4.84-2.78a.39.39,0,0,1,.39-.67l4.84,2.78a.352.352,0,0,1-.19.67Z" transform="matrix(-0.613, -0.785, -0.662, 0.45, 3815.87, -2773.67)" fill="#37474f"/>
    <path id="Path_3930" data-name="Path 3930" d="M389,158.1a.449.449,0,0,1-.19,0L384,155.26a.38.38,0,0,1-.14-.53.39.39,0,0,1,.52-.14l4.84,2.79a.38.38,0,0,1,.15.52A.39.39,0,0,1,389,158.1Z" transform="matrix(-0.613, -0.785, -0.662, 0.45, 3815.87, -2773.67)" fill="#37474f"/>
    <path id="Path_3931" data-name="Path 3931" d="M391.68,156.54a.45.45,0,0,1-.19,0l-4.84-2.79a.38.38,0,0,1-.14-.53A.39.39,0,0,1,387,153l4.84,2.79a.38.38,0,0,1,.15.52.4.4,0,0,1-.31.23Z" transform="matrix(-0.613, -0.785, -0.662, 0.45, 3815.87, -2773.67)" fill="#37474f"/>
    <path id="Path_3932" data-name="Path 3932" d="M394.77,155.5a.46.46,0,0,1-.2-.05l-4.84-2.78a.39.39,0,1,1,.39-.67l4.84,2.78a.39.39,0,0,1-.19.72Z" transform="matrix(-0.613, -0.785, -0.662, 0.45, 3815.87, -2773.67)" fill="#37474f"/>
    <path id="Path_3933" data-name="Path 3933" d="M392.4,178.31a24.82,24.82,0,0,0-1.85,8.92,12,12,0,0,0,1.54,6.38l-8.52-4.93-.19-.11h0l-8.56-5-.21-.12h-.06l-4.53-2.63h-.06c-2.27-1.36-3.67-4.21-3.66-8.25a23.48,23.48,0,0,1,1.74-8.41Z" transform="matrix(-0.613, -0.785, -0.662, 0.45, 3815.87, -2773.67)" opacity="0.15"/>
    <path id="Path_3934" data-name="Path 3934" d="M414.5,160.47c-2.77-1.62-6.59-1.41-10.83,1-8.48,4.87-15.36,16.75-15.38,26.52,0,4.79,1.63,8.17,4.31,9.81.9.56,6.92,3.82,7.77,4.32,2.77,1.62,6.6,1.41,10.85-1,8.47-4.87,15.36-16.74,15.38-26.52,0-4.82-1.67-8.22-4.38-9.85C421.34,164.22,415.35,161,414.5,160.47Z" transform="matrix(-0.613, -0.785, -0.662, 0.45, 3815.87, -2773.67)" fill="#455a64"/>
    <path id="Path_3935" data-name="Path 3935" d="M390.07,195.27a3.933,3.933,0,0,0,.26.4c-.1-.13-.19-.27-.29-.42h0Z" transform="matrix(-0.613, -0.785, -0.662, 0.45, 3815.87, -2773.67)" fill="#455a64"/>
    <path id="Path_3936" data-name="Path 3936" d="M395.9,192.24c0,9.78,6.84,13.76,15.31,8.88s15.37-16.74,15.39-26.52-6.84-13.75-15.32-8.88S395.92,182.47,395.9,192.24Z" transform="matrix(-0.613, -0.785, -0.662, 0.45, 3815.87, -2773.67)" fill="#37474f"/>
    <path id="Path_3937" data-name="Path 3937" d="M404.37,199.43c-4.25,0-4.7-5-4.69-7.18,0-8.41,6.19-19.06,13.48-23.25a10.25,10.25,0,0,1,5-1.58c4.25,0,4.7,5,4.69,7.18,0,8.41-6.19,19.06-13.49,23.25a10.29,10.29,0,0,1-5,1.58Z" transform="matrix(-0.613, -0.785, -0.662, 0.45, 3815.87, -2773.67)" fill="#263238"/>
    <path id="Path_3938" data-name="Path 3938" d="M417.8,169.56a15.636,15.636,0,0,0-.14-2.1,10.86,10.86,0,0,0-4.5,1.54c-7.29,4.19-13.47,14.84-13.48,23.25a15.641,15.641,0,0,0,.14,2.1,10.78,10.78,0,0,0,4.49-1.54C411.61,188.62,417.78,178,417.8,169.56Z" transform="matrix(-0.613, -0.785, -0.662, 0.45, 3815.87, -2773.67)" fill="#ba68c8"/>
    <path id="Path_3939" data-name="Path 3939" d="M417.8,169.56a15.636,15.636,0,0,0-.14-2.1,10.86,10.86,0,0,0-4.5,1.54c-7.29,4.19-13.47,14.84-13.48,23.25a15.641,15.641,0,0,0,.14,2.1,10.78,10.78,0,0,0,4.49-1.54C411.61,188.62,417.78,178,417.8,169.56Z" transform="matrix(-0.613, -0.785, -0.662, 0.45, 3815.87, -2773.67)" opacity="0.3"/>
    <path id="Path_3940" data-name="Path 3940" d="M409.21,173.72c2.88-3.48,6.6-4.63,7.18-3.34s-1.26,13.85-13.4,21.22c0,0,6.57-5.66,9.76-12.8C414.63,174.62,412.92,171.2,409.21,173.72Z" transform="matrix(-0.613, -0.785, -0.662, 0.45, 3815.87, -2773.67)" fill="#e0e0e0"/>
    <path id="Path_3941" data-name="Path 3941" d="M400,201.94c-.05,0-.1-.06-.16-.08l-.12-.07-.25-.14-.21-.12-.46-.24-1-.58-3.66-2-.85-.48-.66-.38a6.7,6.7,0,0,1-1-.71l-.42-.39a6.221,6.221,0,0,1-.63-.73,4.079,4.079,0,0,1-.25-.33,3.939,3.939,0,0,1-.26-.4h0a13.59,13.59,0,0,1-1.75-7.23,28.24,28.24,0,0,1,2.1-10.11q.25-.66.54-1.29c.14-.31.27-.63.43-.94s.3-.62.45-.93l7.55,4.38a30.16,30.16,0,0,0-3.47,13.14,13.73,13.73,0,0,0,1.7,7.17,7.91,7.91,0,0,0,2.38,2.46Z" transform="matrix(-0.613, -0.785, -0.662, 0.45, 3815.87, -2773.67)" opacity="0.15"/>
    <path id="Path_3942" data-name="Path 3942" d="M331.33,99.08V98h.26A3.59,3.59,0,0,1,333,96.65a8.86,8.86,0,0,1,8.05,0A3.53,3.53,0,0,1,342.46,98h.26v1.09h0a2.83,2.83,0,0,1-1.67,2.32,8.86,8.86,0,0,1-8.05,0,2.83,2.83,0,0,1-1.67-2.33Z" transform="matrix(-0.613, -0.785, -0.662, 0.45, 3815.87, -2773.67)" fill="#263238"/>
    <path id="Path_3943" data-name="Path 3943" d="M341.05,100.32c2.22-1.29,2.22-3.37,0-4.65a8.92,8.92,0,0,0-8.05,0c-2.22,1.28-2.22,3.36,0,4.65A8.92,8.92,0,0,0,341.05,100.32Z" transform="matrix(-0.613, -0.785, -0.662, 0.45, 3815.87, -2773.67)" fill="#37474f"/>
    <path id="Path_3944" data-name="Path 3944" d="M368.34,95.62l-26-15a4.42,4.42,0,0,0-6.63,3.83V97.51a.67.67,0,0,0,.39.51A2.06,2.06,0,0,0,338,98a.63.63,0,0,0,.38-.51V84.43a1.75,1.75,0,0,1,.89-1.53,1.72,1.72,0,0,1,1.78,0l26,15a1.31,1.31,0,0,0,1.8-.48A1.33,1.33,0,0,0,368.34,95.62Z" transform="matrix(-0.613, -0.785, -0.662, 0.45, 3815.87, -2773.67)" fill="#263238"/>
    <path id="Path_3945" data-name="Path 3945" d="M403.89,114.47h0c-1.63-2.8-31.46-22-39.21-26.49a3,3,0,0,0-3.14.24,9.6,9.6,0,0,0-4.34,7.52,3,3,0,0,0,1.35,2.85c7.81,4.5,38.63,20.91,42.84,20.72a3.06,3.06,0,0,0,3.06-3.07,3,3,0,0,0-.56-1.77Z" transform="matrix(-0.613, -0.785, -0.662, 0.45, 3815.87, -2773.67)" fill="#f84464"/>
    <path id="Path_3947" data-name="Path 3947" d="M329.68,126.5a1,1,0,0,1,.46-.76l4.34-2.5a1,1,0,0,1,.92,0l3.1,1.79a.94.94,0,0,1,.44.78,1,1,0,0,1-.48.77l-4.32,2.49a1.06,1.06,0,0,1-.92,0l-3.08-1.8a1,1,0,0,1-.46-.77Z" transform="matrix(-0.613, -0.785, -0.662, 0.45, 3815.87, -2773.67)" fill="#f84464"/>
    <path id="Path_3949" data-name="Path 3949" d="M330.14,126.27l3.1,1.79a1,1,0,0,0,.92,0l4.34-2.5c.26-.14.26-.38,0-.53l-3.1-1.79a1,1,0,0,0-.92,0l-4.34,2.5C329.89,125.88,329.89,126.12,330.14,126.27Z" transform="matrix(-0.613, -0.785, -0.662, 0.45, 3815.87, -2773.67)" fill="#ba68c8"/>
    <path id="Path_3950" data-name="Path 3950" d="M330.14,126.27l3.1,1.79a1,1,0,0,0,.92,0l4.34-2.5c.26-.14.26-.38,0-.53l-3.1-1.79a1,1,0,0,0-.92,0l-4.34,2.5C329.89,125.88,329.89,126.12,330.14,126.27Z" transform="matrix(-0.613, -0.785, -0.662, 0.45, 3815.87, -2773.67)" fill="#fff" opacity="0.5"/>
    <path id="Path_3951" data-name="Path 3951" d="M334.14,129.07l4.32-2.49a1,1,0,0,0,.48-.77.94.94,0,0,0-.37-.73c.18.14.16.35-.07.48l-4.34,2.5a1,1,0,0,1-.46.11h0v1a1,1,0,0,0,.44-.1Z" transform="matrix(-0.613, -0.785, -0.662, 0.45, 3815.87, -2773.67)" opacity="0.15"/>
    <path id="Path_3952" data-name="Path 3952" d="M302,110.61a1,1,0,0,1,.46-.76l4.35-2.5a1.06,1.06,0,0,1,.92,0l3.09,1.79a1,1,0,0,1,.45.78,1.11,1.11,0,0,1-.48.78l-4.33,2.48a1,1,0,0,1-.92,0l-3.08-1.8A1,1,0,0,1,302,110.61Z" transform="matrix(-0.613, -0.785, -0.662, 0.45, 3815.87, -2773.67)" fill="#ba68c8"/>
    <path id="Path_3953" data-name="Path 3953" d="M302,110.61a1,1,0,0,1,.46-.76l4.35-2.5a1.06,1.06,0,0,1,.92,0l3.09,1.79a1,1,0,0,1,.45.78,1.11,1.11,0,0,1-.48.78l-4.33,2.48a1,1,0,0,1-.92,0l-3.08-1.8A1,1,0,0,1,302,110.61Z" transform="matrix(-0.613, -0.785, -0.662, 0.45, 3815.87, -2773.67)" fill="#fff" opacity="0.2"/>
    <path id="Path_3954" data-name="Path 3954" d="M302.48,110.38l3.1,1.79a1,1,0,0,0,.92,0l4.34-2.49a.28.28,0,0,0,0-.54l-3.09-1.79a1.06,1.06,0,0,0-.92,0l-4.35,2.5C302.23,110,302.23,110.24,302.48,110.38Z" transform="matrix(-0.613, -0.785, -0.662, 0.45, 3815.87, -2773.67)" fill="#ba68c8"/>
    <path id="Path_3955" data-name="Path 3955" d="M302.48,110.38l3.1,1.79a1,1,0,0,0,.92,0l4.34-2.49a.28.28,0,0,0,0-.54l-3.09-1.79a1.06,1.06,0,0,0-.92,0l-4.35,2.5C302.23,110,302.23,110.24,302.48,110.38Z" transform="matrix(-0.613, -0.785, -0.662, 0.45, 3815.87, -2773.67)" fill="#fff" opacity="0.5"/>
    <path id="Path_3956" data-name="Path 3956" d="M306.48,113.18l4.33-2.49a1,1,0,0,0,.47-.77.91.91,0,0,0-.37-.73c.19.15.16.35-.07.49l-4.34,2.49a.85.85,0,0,1-.46.11h0v1a.9.9,0,0,0,.44-.1Z" transform="matrix(-0.613, -0.785, -0.662, 0.45, 3815.87, -2773.67)" opacity="0.15"/>
    <path id="Path_3957" data-name="Path 3957" d="M309.12,102.31v7l-2.75,1.59v-9.33c0-.48.34-.68.76-.44Z" transform="matrix(-0.613, -0.785, -0.662, 0.45, 3815.87, -2773.67)"/>
    <path id="Path_3958" data-name="Path 3958" d="M336.58,114v11.38L334,126.85l-1.77-1v-9.33a1.66,1.66,0,0,0-.75-1.3l-21.53-12.43-2.78-1.61a.472.472,0,0,0-.76.44v9.33l-1.77-1V98.53a.77.77,0,0,1,0-.15,1.66,1.66,0,0,1,.74-1.16l1.12-.65a1.65,1.65,0,0,1,1.5,0l27.85,16.08A1.64,1.64,0,0,1,336.58,114Z" transform="matrix(-0.613, -0.785, -0.662, 0.45, 3815.87, -2773.67)" fill="#37474f"/>
    <path id="Path_3959" data-name="Path 3959" d="M334,115.47v11.38l-1.77-1v-9.33a1.66,1.66,0,0,0-.75-1.3l-21.53-12.43-2.78-1.61a.472.472,0,0,0-.76.44v9.33l-1.77-1V98.53a.77.77,0,0,1,0-.15c.06-.37.37-.5.74-.29l27.85,16.08A1.67,1.67,0,0,1,334,115.47Z" transform="matrix(-0.613, -0.785, -0.662, 0.45, 3815.87, -2773.67)" fill="#263238"/>
  </g>
</svg>
