<svg xmlns="http://www.w3.org/2000/svg" width="28.255" height="28.255" viewBox="0 0 28.255 28.255">
  <path id="Icon_ionic-logo-facebook" data-name="Icon ionic-logo-facebook" d="M31.2,4.5H6.06A1.561,1.561,0,0,0,4.5,6.06V31.2a1.561,1.561,0,0,0,1.56,1.56H18.628V21.571H15.25V17.45h3.377V14.4c0-3.65,2.531-5.636,5.791-5.636,1.56,0,3.238.118,3.628.169v3.812h-2.6c-1.773,0-2.112.839-2.112,2.075V17.45h4.224l-.552,4.121H23.337V32.755H31.2a1.561,1.561,0,0,0,1.56-1.56V6.06A1.561,1.561,0,0,0,31.2,4.5Z" transform="translate(-4.5 -4.5)" fill="#f84464"/>
</svg>
