<svg xmlns="http://www.w3.org/2000/svg" width="18" height="18" viewBox="0 0 18 18">
  <path id="Icon_awesome-google-plus-square" data-name="Icon awesome-google-plus-square" d="M16.071,2.25H1.929A1.929,1.929,0,0,0,0,4.179V18.321A1.929,1.929,0,0,0,1.929,20.25H16.071A1.929,1.929,0,0,0,18,18.321V4.179A1.929,1.929,0,0,0,16.071,2.25ZM6.589,15.268a4.018,4.018,0,0,1,0-8.036A3.838,3.838,0,0,1,9.281,8.285L8.192,9.333a2.254,2.254,0,0,0-1.6-.619,2.54,2.54,0,0,0,0,5.079,2.18,2.18,0,0,0,2.282-1.732H6.589V10.679h3.793a3.265,3.265,0,0,1,.064.667A3.7,3.7,0,0,1,6.589,15.268Zm8.839-3.287H14.263v1.165H13.09V11.981H11.925V10.808H13.09V9.643h1.173v1.165h1.165Z" transform="translate(0 -2.25)" fill="rgba(248,68,100,0.95)" opacity="0.74"/>
</svg>
