<svg xmlns="http://www.w3.org/2000/svg" width="29.452" height="29.452" viewBox="0 0 29.452 29.452">
  <path id="Icon_awesome-google-plus-square" data-name="Icon awesome-google-plus-square" d="M26.3,2.25H3.156A3.156,3.156,0,0,0,0,5.406V28.547A3.156,3.156,0,0,0,3.156,31.7H26.3a3.156,3.156,0,0,0,3.156-3.156V5.406A3.156,3.156,0,0,0,26.3,2.25ZM10.782,23.55a6.574,6.574,0,0,1,0-13.148,6.28,6.28,0,0,1,4.4,1.722L13.4,13.84a3.688,3.688,0,0,0-2.617-1.012,4.156,4.156,0,0,0,0,8.31A3.567,3.567,0,0,0,14.522,18.3H10.782V16.043h6.206a5.342,5.342,0,0,1,.105,1.091A6.06,6.06,0,0,1,10.782,23.55Zm14.463-5.378H23.338v1.907h-1.92V18.173H19.512v-1.92h1.906V14.346h1.92v1.906h1.907Z" transform="translate(0 -2.25)" fill="#f84464"/>
</svg>
