<svg xmlns="http://www.w3.org/2000/svg" xmlns:xlink="http://www.w3.org/1999/xlink" width="588.999" height="653" viewBox="0 0 588.999 653">
  <defs>
    <filter id="Subtraction_27" x="0" y="0" width="588.999" height="653" filterUnits="userSpaceOnUse">
      <feOffset input="SourceAlpha"/>
      <feGaussianBlur stdDeviation="1" result="blur"/>
      <feFlood flood-color="#f84464"/>
      <feComposite operator="in" in2="blur"/>
      <feComposite in="SourceGraphic"/>
    </filter>
  </defs>
  <g transform="matrix(1, 0, 0, 1, 0, 0)" filter="url(#Subtraction_27)">
    <path id="Subtraction_27-2" data-name="Subtraction 27" d="M233.005,5075h-22.01A28.5,28.5,0,0,0,154,5075H132a28.5,28.5,0,0,0-56.991,0H53a28.5,28.5,0,0,0-28.5-28A28.5,28.5,0,0,0-4,5075H-26a28.324,28.324,0,0,0-8.508-19.815A28.332,28.332,0,0,0-54.5,5047a28.332,28.332,0,0,0-19.988,8.184A28.326,28.326,0,0,0-82.994,5075H-105a28.323,28.323,0,0,0-8.508-19.815A28.333,28.333,0,0,0-133.5,5047a28.332,28.32,0,0,0-19.987,8.184A28.324,28.324,0,0,0-161.995,5075H-184a28.323,28.323,0,0,0-8.508-19.815A28.332,28.332,0,0,0-212.5,5047a28.337,28.337,0,0,0-19.989,8.184A28.323,28.323,0,0,0-241,5075H-253a13.914,13.914,0,0,1-9.9-4.1,13.908,13.908,0,0,1-4.1-9.9V4442a13.908,13.908,0,0,1,4.1-9.9,13.907,13.907,0,0,1,9.9-4.1H-244c0,.155,0,.321,0,.5a28.532,28.532,0,0,0,28.5,28.5,28.531,28.531,0,0,0,28.5-28.5c0-.16,0-.326,0-.5h22.008c0,.177,0,.344,0,.5a28.532,28.532,0,0,0,28.5,28.5,28.532,28.532,0,0,0,28.5-28.5c0-.16,0-.326,0-.5h22.011c0,.19,0,.344,0,.5A28.532,28.532,0,0,0-57.5,4457,28.532,28.532,0,0,0-29,4428.5c0-.153,0-.312,0-.47V4428H-7c0,.169,0,.336,0,.5a28.5,28.5,0,0,0,57,0c0-.149,0-.309,0-.471V4428H72.006c0,.188,0,.342,0,.5a28.5,28.5,0,1,0,57,0c0-.17,0-.352,0-.5H151c0,.155,0,.314,0,.5a28.5,28.5,0,1,0,57,0c0-.16,0-.331,0-.5h22.008c0,.182,0,.34,0,.5a28.5,28.5,0,1,0,57,0c0-.162,0-.329,0-.5H302a14,14,0,0,1,7.033,1.891,28.6,28.6,0,0,0,.966,6.123v-5.5A14.019,14.019,0,0,1,316,4442v619a14,14,0,0,1-14,14H290a28.5,28.5,0,0,0-56.991,0Z" transform="translate(270 -4425)" fill="#0d0d0d"/>
  </g>
</svg>
