<svg xmlns="http://www.w3.org/2000/svg" width="21.128" height="21.128" viewBox="0 0 21.128 21.128">
  <path id="Icon_metro-cross" data-name="Icon metro-cross" d="M23.506,18.9h0l-6.41-6.41,6.41-6.41h0a.662.662,0,0,0,0-.934L20.478,2.121a.662.662,0,0,0-.934,0h0l-6.41,6.41-6.41-6.41h0a.662.662,0,0,0-.934,0L2.764,5.149a.662.662,0,0,0,0,.934h0l6.41,6.41L2.764,18.9h0a.662.662,0,0,0,0,.934l3.028,3.028a.662.662,0,0,0,.934,0h0l6.41-6.41,6.41,6.41h0a.662.662,0,0,0,.933,0l3.028-3.028a.662.662,0,0,0,0-.934Z" transform="translate(-2.571 -1.928)" fill="rgba(248,68,100,0.95)"/>
</svg>
