<svg xmlns="http://www.w3.org/2000/svg" width="18" height="18" viewBox="0 0 18 18">
  <path id="Icon_ionic-logo-facebook" data-name="Icon ionic-logo-facebook" d="M21.506,4.5H5.494a.994.994,0,0,0-.994.994V21.506a.994.994,0,0,0,.994.994H13.5V15.375H11.348V12.75H13.5V10.809a3.42,3.42,0,0,1,3.689-3.591c.994,0,2.063.075,2.311.108V9.755H17.845c-1.13,0-1.345.534-1.345,1.322V12.75h2.691l-.352,2.625H16.5V22.5h5.006a.994.994,0,0,0,.994-.994V5.494A.994.994,0,0,0,21.506,4.5Z" transform="translate(-4.5 -4.5)" fill="rgba(248,68,100,0.95)"/>
</svg>
