<svg xmlns="http://www.w3.org/2000/svg" width="25" height="25.946" viewBox="0 0 25 25.946">
  <g id="Group_305" data-name="Group 305" transform="translate(-1729 -85)">
    <circle id="Ellipse_9" data-name="Ellipse 9" cx="12.5" cy="12.5" r="12.5" transform="translate(1729 85)" fill="#111"/>
    <path id="Icon_awesome-user-alt" data-name="Icon awesome-user-alt" d="M10.438,12.2A5.991,5.991,0,0,0,16.31,6.1,5.991,5.991,0,0,0,10.438,0,5.991,5.991,0,0,0,4.567,6.1,5.991,5.991,0,0,0,10.438,12.2Zm5.219,1.356H13.411a6.857,6.857,0,0,1-5.945,0H5.219A5.323,5.323,0,0,0,0,18.978v.678a2,2,0,0,0,1.957,2.033H18.919a2,2,0,0,0,1.957-2.033v-.678A5.323,5.323,0,0,0,15.657,13.556Z" transform="translate(1731.062 89.256)" fill="#fefefe"/>
  </g>
</svg>
