<svg xmlns="http://www.w3.org/2000/svg" width="67.759" height="67.759" viewBox="0 0 67.759 67.759">
  <g id="Group_105" data-name="Group 105" transform="translate(-1669.864 -69.474)" opacity="0.7">
    <path id="Icon_awesome-user-alt" data-name="Icon awesome-user-alt" d="M33.88,38.114A19.057,19.057,0,1,0,14.822,19.057,19.062,19.062,0,0,0,33.88,38.114Zm16.94,4.235H43.527a23.037,23.037,0,0,1-19.3,0H16.94A16.938,16.938,0,0,0,0,59.289v2.117a6.354,6.354,0,0,0,6.352,6.352H61.407a6.354,6.354,0,0,0,6.352-6.352V59.289A16.938,16.938,0,0,0,50.819,42.349Z" transform="translate(1669.864 69.474)" fill="#fff"/>
  </g>
</svg>
