<svg xmlns="http://www.w3.org/2000/svg" width="19.268" height="20.75" viewBox="0 0 19.268 20.75">
  <g id="Icon_ionic-ios-gift" data-name="Icon ionic-ios-gift" transform="translate(-3.375 -2.25)">
    <path id="Path_5318" data-name="Path 5318" d="M21.161,7.067h-3.9a2.721,2.721,0,0,0,.94-2.038A2.856,2.856,0,0,0,15.274,2.25a2.584,2.584,0,0,0-2.265,1.269A2.584,2.584,0,0,0,10.744,2.25,2.856,2.856,0,0,0,7.821,5.029a2.705,2.705,0,0,0,.94,2.038h-3.9A1.481,1.481,0,0,0,3.375,8.549v.926a.186.186,0,0,0,.185.185h18.9a.186.186,0,0,0,.185-.185V8.549A1.481,1.481,0,0,0,21.161,7.067Zm-5.887-3.52a1.523,1.523,0,0,1,1.561,1.482,1.523,1.523,0,0,1-1.561,1.482H13.713C13.713,4.288,14.412,3.547,15.274,3.547Zm-4.53,0c.861,0,1.561.741,1.561,2.964H10.744A1.523,1.523,0,0,1,9.183,5.029,1.523,1.523,0,0,1,10.744,3.547Z" fill="rgba(248,68,100,0.95)"/>
    <path id="Path_5319" data-name="Path 5319" d="M4.5,15.7V25.981a1.487,1.487,0,0,0,1.482,1.482h6.762V15.328H4.871A.372.372,0,0,0,4.5,15.7Z" transform="translate(-0.384 -4.463)" fill="rgba(248,68,100,0.95)"/>
    <path id="Path_5320" data-name="Path 5320" d="M26.858,15.328H18.984V27.463h6.762a1.487,1.487,0,0,0,1.482-1.482V15.7A.372.372,0,0,0,26.858,15.328Z" transform="translate(-5.327 -4.463)" fill="rgba(248,68,100,0.95)"/>
  </g>
</svg>
