<svg xmlns="http://www.w3.org/2000/svg" xmlns:xlink="http://www.w3.org/1999/xlink" width="165" height="175.254" viewBox="0 0 165 175.254">
  <defs>
    <filter id="Path_5292" x="0" y="0" width="165" height="165" filterUnits="userSpaceOnUse">
      <feOffset dy="3" input="SourceAlpha"/>
      <feGaussianBlur stdDeviation="3.5" result="blur"/>
      <feFlood flood-color="#f84464" flood-opacity="0.749"/>
      <feComposite operator="in" in2="blur"/>
      <feComposite in="SourceGraphic"/>
    </filter>
  </defs>
  <g id="Group_304" data-name="Group 304" transform="translate(-876.826 -1071.337)">
    <g transform="matrix(1, 0, 0, 1, 876.83, 1071.34)" filter="url(#Path_5292)">
      <g id="Path_5292-2" data-name="Path 5292" transform="translate(10.5 7.5)" fill="none">
        <path d="M72,0A72,72,0,1,1,0,72,72,72,0,0,1,72,0Z" stroke="none"/>
        <path d="M 72 6 C 35.60747528076172 6 6 35.60747528076172 6 72 C 6 108.3925247192383 35.60747528076172 138 72 138 C 108.3925247192383 138 138 108.3925247192383 138 72 C 138 35.60747528076172 108.3925247192383 6 72 6 M 72 0 C 111.7644958496094 0 144 32.23549652099609 144 72 C 144 111.7644958496094 111.7644958496094 144 72 144 C 32.23549652099609 144 0 111.7644958496094 0 72 C 0 32.23549652099609 32.23549652099609 0 72 0 Z" stroke="none" fill="#fff"/>
      </g>
    </g>
    <path id="Path_5258" data-name="Path 5258" d="M102.865,46.733v4.732a51.432,51.432,0,1,1-30.5-47.009" transform="translate(1024.787 1119.035) rotate(109)" fill="none" stroke="#f84464" stroke-linecap="round" stroke-linejoin="round" stroke-width="8"/>
    <path id="Path_5259" data-name="Path 5259" d="M22.4,0s.111,8.413,3.7,14.691S36.75,25.11,36.75,25.11L20.026,18.2Z" transform="translate(932.765 1251.379) rotate(-60)" fill="#fff"/>
    <path id="Icon_awesome-hand-holding-usd" data-name="Icon awesome-hand-holding-usd" d="M.964,30.059a2.961,2.961,0,0,1,3.85,0l8.331,6.77a5.7,5.7,0,0,0,3.611,1.283H27.428a1.466,1.466,0,0,0,0-2.932h-7.06a3,3,0,0,1-3-2.437,2.925,2.925,0,0,1,2.847-3.426H34.651a10.473,10.473,0,0,1,6.678,2.41l4.194,3.454h5.006a1.459,1.459,0,0,1,1.443,1.466v8.8a1.459,1.459,0,0,1-1.443,1.466H18.342a5.738,5.738,0,0,1-3.611-1.283L1.089,34.539a2.961,2.961,0,0,1-.124-4.48Z" transform="translate(933.34 1131.442)" fill="#fff"/>
    <path id="Subtraction_4" data-name="Subtraction 4" d="M-3722,4325h-28v-3.268c.108.011.22.018.333.018a2.966,2.966,0,0,0,3-2.925,2.967,2.967,0,0,0-3-2.925,3.172,3.172,0,0,0-.333.018V4312h28v3.918a2.949,2.949,0,0,0-2.667,2.907,2.947,2.947,0,0,0,2.667,2.907V4325Z" transform="translate(5567.159 -2227.659) rotate(13)" fill="#f84464"/>
  </g>
</svg>
