<svg xmlns="http://www.w3.org/2000/svg" xmlns:xlink="http://www.w3.org/1999/xlink" width="165" height="178.539" viewBox="0 0 165 178.539">
  <defs>
    <filter id="Ellipse_166" x="0" y="0" width="165" height="165" filterUnits="userSpaceOnUse">
      <feOffset dy="3" input="SourceAlpha"/>
      <feGaussianBlur stdDeviation="3.5" result="blur"/>
      <feFlood flood-color="#f84464" flood-opacity="0.749"/>
      <feComposite operator="in" in2="blur"/>
      <feComposite in="SourceGraphic"/>
    </filter>
  </defs>
  <g id="Group_264" data-name="Group 264" transform="translate(-210.761 -1127.5)">
    <g transform="matrix(1, 0, 0, 1, 210.76, 1127.5)" filter="url(#Ellipse_166)">
      <g id="Ellipse_166-2" data-name="Ellipse 166" transform="translate(10.5 7.5)" fill="none" stroke="#fff" stroke-width="6">
        <circle cx="72" cy="72" r="72" stroke="none"/>
        <circle cx="72" cy="72" r="69" fill="none"/>
      </g>
    </g>
    <path id="Path_5256" data-name="Path 5256" d="M102.865,46.733v4.732a51.432,51.432,0,1,1-30.5-47.009" transform="translate(232.34 1166.887) rotate(-12)" fill="none" stroke="#f84464" stroke-linecap="round" stroke-linejoin="round" stroke-width="8"/>
    <path id="Path_5257" data-name="Path 5257" d="M22.4,0s.111,8.413,3.7,14.691S36.75,25.11,36.75,25.11L20.026,18.2Z" transform="translate(266.699 1310.827) rotate(-60)" fill="#fff"/>
    <path id="Icon_awesome-hand-holding-usd" data-name="Icon awesome-hand-holding-usd" d="M.964,30.059a2.961,2.961,0,0,1,3.85,0l8.331,6.77a5.7,5.7,0,0,0,3.611,1.283H27.428a1.466,1.466,0,0,0,0-2.932h-7.06a3,3,0,0,1-3-2.437,2.925,2.925,0,0,1,2.847-3.426H34.651a10.473,10.473,0,0,1,6.678,2.41l4.194,3.454h5.006a1.459,1.459,0,0,1,1.443,1.466v8.8a1.459,1.459,0,0,1-1.443,1.466H18.342a5.738,5.738,0,0,1-3.611-1.283L1.089,34.539a2.961,2.961,0,0,1-.124-4.48Z" transform="translate(277.712 1185.387)" fill="#fff"/>
    <path id="Subtraction_3" data-name="Subtraction 3" d="M-3729,4322h-21v-2.514a2.338,2.338,0,0,0,.25.014,2.252,2.252,0,0,0,2.25-2.25,2.252,2.252,0,0,0-2.25-2.25,2.255,2.255,0,0,0-.25.014V4312h21v3.014a2.246,2.246,0,0,0-2,2.236,2.245,2.245,0,0,0,2,2.236V4322Z" transform="translate(4915.531 -2165.714) rotate(13)" fill="#f84464"/>
    <path id="Icon_awesome-hand-holding-usd-2" data-name="Icon awesome-hand-holding-usd" d="M51.007,46.165a2.961,2.961,0,0,1-3.85,0l-8.331-6.77a5.7,5.7,0,0,0-3.611-1.283H24.543a1.466,1.466,0,0,0,0,2.932H31.6a3,3,0,0,1,3,2.437,2.925,2.925,0,0,1-2.847,3.426H17.321a10.473,10.473,0,0,1-6.678-2.41L6.449,41.044H1.443A1.459,1.459,0,0,1,0,39.578v-8.8a1.459,1.459,0,0,1,1.443-1.466H33.629A5.738,5.738,0,0,1,37.24,30.6L50.883,41.685a2.961,2.961,0,0,1,.124,4.48Z" transform="translate(255.849 1154.092)" fill="#fff"/>
  </g>
</svg>
