<svg xmlns="http://www.w3.org/2000/svg" width="144.84" height="67" viewBox="0 0 144.84 67">
  <g id="Group_191" data-name="Group 191" transform="translate(102 426)">
    <g id="Group_5" data-name="Group 5" transform="translate(36 -415.645)">
      <circle id="Ellipse_7" data-name="Ellipse 7" cx="1.495" cy="1.495" r="1.495" transform="translate(0 0.468) rotate(-9)" fill="#fff"/>
      <circle id="Ellipse_6" data-name="Ellipse 6" cx="1.495" cy="1.495" r="1.495" transform="translate(3.42 2.953) rotate(-9)" fill="#fff"/>
    </g>
    <g id="Group_3" data-name="Group 3" transform="translate(-58.343 -399.994)">
      <path id="Path_3781" data-name="Path 3781" d="M772.287,480.577s-3.519-1.459-5.361.687-2.932,11.97,0,13.708,7.783,1.171,9.547,0c0,0-3.767,1.918.024-.017s12.7-24.967,13.112-25.269a3.281,3.281,0,0,1,3.187,0c.994.78,1.246,25.924,1.246,25.924" transform="translate(-765.112 -469.261)" fill="none" stroke="rgba(248,68,100,0.95)" stroke-linecap="round" stroke-width="3"/>
      <path id="Path_3782" data-name="Path 3782" d="M2844.48-665.825c-.506-.127-4.877,0-4.877,0" transform="translate(-2817.51 678.681)" fill="none" stroke="#ff2424" stroke-linecap="round" stroke-width="3"/>
    </g>
    <g id="Group_4" data-name="Group 4" transform="translate(-102 -417)">
      <text id="T" transform="translate(0 45)" fill="#fff" font-size="50" font-family="SegoeUI-Italic, Segoe UI" font-style="italic"><tspan x="0" y="0">T</tspan></text>
      <text id="i" transform="translate(28.794 45)" fill="#fff" font-size="50" font-family="SegoeUI-Italic, Segoe UI" font-style="italic"><tspan x="0" y="0">i</tspan></text>
      <text id="r" transform="translate(76.367 45)" fill="#fff" font-size="50" font-family="SegoeUI-Italic, Segoe UI" font-style="italic"><tspan x="0" y="0">r</tspan></text>
      <text id="e" transform="translate(95.398 43)" fill="#fff" font-size="48" font-family="SegoeUI-Italic, Segoe UI" font-style="italic"><tspan x="0" y="0">e</tspan></text>
      <text id="t-2" data-name="t" transform="translate(123.696 45)" fill="#fff" font-size="50" font-family="SegoeUI-Italic, Segoe UI" font-style="italic"><tspan x="0" y="0">t</tspan></text>
    </g>
  </g>
</svg>
