<svg id="svg" version="1.1" xmlns="http://www.w3.org/2000/svg" xmlns:xlink="http://www.w3.org/1999/xlink" width="400" height="400" viewBox="0, 0, 400,400"><g id="svgg"><path id="path1" d="M0.000 200.000 L 0.000 400.000 200.000 400.000 L 400.000 400.000 400.000 200.000 L 400.000 0.000 200.000 0.000 L 0.000 0.000 0.000 200.000 M254.600 127.600 L 259.400 132.453 242.800 148.843 C 223.595 167.805,222.961 168.256,218.729 165.977 C 217.293 165.203,196.000 144.457,196.000 143.831 C 196.000 143.280,205.023 134.667,205.794 134.482 C 206.064 134.417,208.359 136.937,210.893 140.082 C 213.428 143.227,216.812 147.420,218.414 149.400 C 221.983 153.812,221.549 153.836,225.649 149.000 C 227.514 146.800,233.409 139.825,238.748 133.501 C 246.786 123.979,248.571 122.066,249.128 122.374 C 249.497 122.579,251.960 124.931,254.600 127.600 M185.476 136.884 C 186.147 137.625,186.215 139.077,186.400 156.810 L 186.600 175.936 187.570 176.968 C 188.629 178.096,189.897 178.252,192.600 177.588 C 214.863 172.116,234.778 176.702,242.187 189.006 C 246.940 196.900,246.924 196.735,247.093 239.511 L 247.239 276.423 246.050 277.611 L 244.862 278.800 229.400 278.800 L 213.938 278.800 212.769 277.631 L 211.600 276.462 211.597 244.331 C 211.593 205.230,211.619 205.455,206.837 202.931 C 203.813 201.334,193.825 201.953,188.681 204.055 C 186.311 205.024,186.400 203.547,186.400 241.799 L 186.400 276.838 185.342 277.819 L 184.283 278.800 169.515 278.800 C 160.152 278.800,154.466 278.649,153.978 278.388 C 151.896 277.274,152.000 280.978,152.000 207.789 L 152.000 139.938 153.132 138.807 C 154.437 137.502,154.682 137.463,166.200 136.773 C 185.393 135.624,184.330 135.617,185.476 136.884 M311.000 157.219 C 331.227 158.950,342.271 167.959,345.861 185.656 C 346.698 189.785,347.192 255.687,346.400 257.600 C 344.130 263.081,309.616 268.507,290.144 266.445 C 270.354 264.349,258.985 256.888,255.314 243.587 C 253.881 238.395,254.448 226.187,256.344 221.400 C 262.392 206.135,280.975 198.937,304.783 202.640 C 310.912 203.593,312.306 202.360,311.884 196.358 C 311.347 188.725,308.775 185.675,301.758 184.349 C 296.548 183.364,282.434 184.639,274.473 186.813 C 270.031 188.026,269.001 187.391,267.637 182.600 C 266.592 178.928,264.000 167.930,264.000 167.166 C 264.000 162.982,285.653 157.486,304.600 156.861 C 305.480 156.832,308.360 156.993,311.000 157.219 M113.000 158.210 C 129.287 161.123,138.243 169.575,141.668 185.267 C 142.746 190.208,143.372 254.853,142.365 257.285 C 141.143 260.235,127.025 264.178,111.857 265.805 C 72.928 269.982,50.746 258.487,50.807 234.167 C 50.867 210.345,70.400 198.099,101.071 202.654 C 107.160 203.558,107.968 202.942,107.987 197.373 C 108.034 183.991,96.552 180.704,71.273 186.863 C 65.556 188.255,65.536 188.233,62.807 177.387 C 59.824 165.534,59.866 165.362,66.292 163.252 C 82.414 157.960,100.613 155.995,113.000 158.210 M94.887 220.826 C 83.672 222.796,79.828 238.389,89.350 243.283 C 94.147 245.748,104.640 245.797,107.072 243.365 C 108.533 241.904,108.526 223.834,107.064 222.460 C 105.402 220.899,99.206 220.067,94.887 220.826 M295.811 221.695 C 287.287 224.661,284.753 238.046,291.805 242.856 C 296.748 246.227,309.210 246.371,311.217 243.080 C 312.568 240.864,312.397 224.533,311.006 222.880 C 309.122 220.641,300.722 219.986,295.811 221.695 " stroke="none" fill="#f46c33" fill-rule="evenodd"></path></g></svg>