<svg xmlns="http://www.w3.org/2000/svg" width="218.226" height="67" viewBox="0 0 218.226 67">
  <g id="Group_267" data-name="Group 267" transform="translate(-1071 -2884.161)">
    <path id="path2" d="M228.375,163.066a.955.955,0,0,1,.965-.832,1.533,1.533,0,0,1,.8.259A107.1,107.1,0,0,0,286.473,178.6a105.112,105.112,0,0,0,42.969-9.48c2.106-.959,3.87,1.495,1.81,3.143-12.463,9.908-30.531,15.18-46.09,15.18a80.126,80.126,0,0,1-56.3-23.15,1.571,1.571,0,0,1-.488-.886Z" transform="translate(895.572 2763.718)" fill="#00aae1" fill-rule="evenodd"/>
    <path id="path4" d="M428.2,163.09c3.685-2.783,8.585-3.711,12.648-3.711,3.8,0,6.869.814,7.523,1.683,1.373,1.815-.353,14.4-7.042,20.4-1.024.929-2,.429-1.546-.784,1.5-4.025,4.87-13.062,3.275-15.253s-10.537-1.047-14.548-.528c-.622.079-.975-.175-1.027-.554v-.2A1.677,1.677,0,0,1,428.2,163.09Z" transform="translate(788.345 2765.255)" fill="#00aae1" fill-rule="evenodd"/>
    <path id="path6" d="M457.44,103.376a9.966,9.966,0,0,1-7.681-2.979q-2.767-2.979-2.767-8.312,0-5.292,2.767-8.27a11.391,11.391,0,0,1,15.362,0q2.767,2.978,2.767,8.27,0,5.333-2.767,8.312a9.965,9.965,0,0,1-7.681,2.979Zm0-4.667q4.336,0,4.336-6.624,0-6.583-4.336-6.583T453.1,92.085Q453.1,98.709,457.44,98.709Zm-22.774-4.723a15.764,15.764,0,0,1-4-.448,5.567,5.567,0,0,0,1.638,3.922,6.409,6.409,0,0,0,4.224,1.184,16.5,16.5,0,0,0,2.2-.144,27.255,27.255,0,0,0,2.97-.63,1.487,1.487,0,0,1,.242-.062,1.227,1.227,0,0,1,.2-.021c.46,0,.688.313.688.94v1.88a1.738,1.738,0,0,1-.18.919,1.5,1.5,0,0,1-.708.468,17.231,17.231,0,0,1-6.267,1.143q-5.012,0-7.7-2.779t-2.687-7.967q0-5.31,2.748-8.333a9.794,9.794,0,0,1,7.637-3.026,8.69,8.69,0,0,1,5.882,1.838,6.168,6.168,0,0,1,2.122,4.9,5.271,5.271,0,0,1-2.282,4.638Q439.112,93.988,434.666,93.986Zm.565-8.825q-3.883,0-4.486,4.821a18.017,18.017,0,0,0,3.6.327,5.438,5.438,0,0,0,2.99-.634,2.181,2.181,0,0,0,.93-1.939q0-2.578-3.032-2.576ZM409.15,103.209a7.9,7.9,0,0,1-4.666-1.4,8.822,8.822,0,0,1-3.035-3.875A14.543,14.543,0,0,1,400.4,92.21a13.025,13.025,0,0,1,2.436-8.27,7.787,7.787,0,0,1,6.442-3.1,8.906,8.906,0,0,1,5.657,1.875V72.962a1.079,1.079,0,0,1,.248-.813,1.13,1.13,0,0,1,.784-.229h3.964a1.12,1.12,0,0,1,.805.229,1.144,1.144,0,0,1,.227.813v28.748a1.155,1.155,0,0,1-.227.792,1.057,1.057,0,0,1-.805.25h-3.3a1.223,1.223,0,0,1-.764-.208,1.245,1.245,0,0,1-.392-.708l-.248-.958A8.71,8.71,0,0,1,409.15,103.209Zm1.982-4.583a6.929,6.929,0,0,0,3.8-1.167v-11a7.928,7.928,0,0,0-4.089-1.042,3.629,3.629,0,0,0-3.262,1.646,9.233,9.233,0,0,0-1.074,4.979A8.717,8.717,0,0,0,407.643,97,3.967,3.967,0,0,0,411.133,98.626Zm-19.7,4.124a1.068,1.068,0,0,1-.785-.25,1.09,1.09,0,0,1-.248-.792V82.5a1.079,1.079,0,0,1,.248-.813,1.131,1.131,0,0,1,.785-.229H395.4a1.119,1.119,0,0,1,.805.229,1.144,1.144,0,0,1,.227.813v19.207a1.155,1.155,0,0,1-.227.792,1.057,1.057,0,0,1-.805.25Zm1.982-24.581a3.572,3.572,0,0,1-2.519-.875,3.444,3.444,0,0,1,0-4.75,4.064,4.064,0,0,1,5.038,0,3.444,3.444,0,0,1,0,4.75A3.572,3.572,0,0,1,393.417,78.17Zm-18.364,24.581a1.91,1.91,0,0,1-.682-.1,1.08,1.08,0,0,1-.454-.334,2.487,2.487,0,0,1-.351-.646L366.5,83.127q-.108-.29-.206-.583a1.475,1.475,0,0,1-.083-.458q0-.625.826-.625h4.13a1.538,1.538,0,0,1,.97.25,1.6,1.6,0,0,1,.475.833l4.253,14.749,4.336-14.749a1.6,1.6,0,0,1,.475-.833,1.537,1.537,0,0,1,.97-.25h4.005q.826,0,.826.625a1.462,1.462,0,0,1-.083.458q-.082.25-.206.583l-7.062,18.54a2.492,2.492,0,0,1-.351.646,1.111,1.111,0,0,1-.433.334,1.879,1.879,0,0,1-.7.1Z" transform="translate(821.339 2812.491)" fill="#232f3e" fill-rule="evenodd"/>
    <path id="path8" d="M211.641,94.054a16.264,16.264,0,0,1-4.106-.457,5.661,5.661,0,0,0,1.681,4,6.6,6.6,0,0,0,4.333,1.209,17.027,17.027,0,0,0,2.261-.148,28,28,0,0,0,3.047-.643,1.539,1.539,0,0,1,.248-.063,1.3,1.3,0,0,1,.206-.021c.472,0,.706.32.706.959v1.918a1.763,1.763,0,0,1-.186.938,1.533,1.533,0,0,1-.727.478,17.756,17.756,0,0,1-6.43,1.167q-5.142,0-7.9-2.835t-2.757-8.129q0-5.416,2.82-8.5a10.075,10.075,0,0,1,7.835-3.088,8.949,8.949,0,0,1,6.035,1.876,6.278,6.278,0,0,1,2.177,5,5.368,5.368,0,0,1-2.341,4.731q-2.344,1.607-6.906,1.605Zm.58-9q-3.984,0-4.6,4.918a18.575,18.575,0,0,0,3.69.334,5.6,5.6,0,0,0,3.068-.646,2.22,2.22,0,0,0,.954-1.977Q215.331,85.049,212.221,85.051Zm-40.474-1.542a17.7,17.7,0,0,1,3.959-2.062,11.1,11.1,0,0,1,3.631-.608q3.732,0,5.266,2.67a16.794,16.794,0,0,1,3.98-2.041,12.028,12.028,0,0,1,3.855-.629,6.033,6.033,0,0,1,4.5,1.627,6.222,6.222,0,0,1,1.6,4.545v14.714a1.154,1.154,0,0,1-.227.79,1.065,1.065,0,0,1-.811.249h-3.98a1.059,1.059,0,0,1-.786-.249,1.073,1.073,0,0,1-.251-.79V88.346q0-2.834-2.53-2.835a10.442,10.442,0,0,0-4.519,1.082v15.132a1.154,1.154,0,0,1-.227.79,1.064,1.064,0,0,1-.811.249h-3.981a1.059,1.059,0,0,1-.786-.249,1.072,1.072,0,0,1-.248-.79V88.346q0-2.834-2.53-2.835a10.056,10.056,0,0,0-4.564,1.124v15.09a1.152,1.152,0,0,1-.227.79,1.06,1.06,0,0,1-.807.249h-3.984a1.063,1.063,0,0,1-.786-.249,1.086,1.086,0,0,1-.248-.79V82.508a1.075,1.075,0,0,1,.248-.811,1.125,1.125,0,0,1,.786-.228h2.988a1.074,1.074,0,0,1,1.161.917Zm-16.7-1a1.076,1.076,0,0,1,.248-.812,1.137,1.137,0,0,1,.79-.232h3.98a1.111,1.111,0,0,1,.808.232,1.125,1.125,0,0,1,.231.812v19.214a1.145,1.145,0,0,1-.231.794,1.063,1.063,0,0,1-.808.25h-3.98a.9.9,0,0,1-1.038-1.043Zm3.027-4.335a3.6,3.6,0,0,1-2.53-.874,3.445,3.445,0,0,1,0-4.753,4.1,4.1,0,0,1,5.06,0,3.437,3.437,0,0,1,0,4.753A3.6,3.6,0,0,1,158.07,78.174ZM144.2,84.634a11.881,11.881,0,0,1,3.131-2.606,6.664,6.664,0,0,1,3.131-.769h.58a1.214,1.214,0,0,1,.828.228,1.073,1.073,0,0,1,.248.811v3.5a1.15,1.15,0,0,1-.227.794,1.063,1.063,0,0,1-.807.249c-.2,0-.444-.014-.748-.042q-.579-.047-1.16-.042a12.445,12.445,0,0,0-2.324.27,11.475,11.475,0,0,0-2.321.688v14a1.169,1.169,0,0,1-.227.794,1.078,1.078,0,0,1-.811.249h-3.981a1.075,1.075,0,0,1-.786-.249,1.088,1.088,0,0,1-.251-.794V82.509a1.076,1.076,0,0,1,.251-.815,1.139,1.139,0,0,1,.786-.228h2.985a1.077,1.077,0,0,1,1.164.917Zm-30.56-2.127a1.071,1.071,0,0,1,.252-.811,1.121,1.121,0,0,1,.786-.228h2.987a1.074,1.074,0,0,1,1.161.917l.29,1.082a9.212,9.212,0,0,1,3.005-1.918,9.579,9.579,0,0,1,3.589-.706,7.689,7.689,0,0,1,6.363,2.958,12.55,12.55,0,0,1,2.345,8.005,14.649,14.649,0,0,1-1.161,6.041,9.441,9.441,0,0,1-3.152,3.98,7.727,7.727,0,0,1-4.564,1.4,9.609,9.609,0,0,1-3.232-.541,7.792,7.792,0,0,1-2.614-1.5v9.126a1.156,1.156,0,0,1-.227.815,1.143,1.143,0,0,1-.811.228h-3.98a1.139,1.139,0,0,1-.786-.228,1.075,1.075,0,0,1-.252-.815Zm10.121,2.919a7.89,7.89,0,0,0-4.064,1.124V97.513a7.579,7.579,0,0,0,4.064,1.128,3.873,3.873,0,0,0,3.421-1.584,8.917,8.917,0,0,0,1.1-5,9.152,9.152,0,0,0-1.08-5.044A3.864,3.864,0,0,0,123.756,85.427Z" transform="translate(957.365 2812.49)" fill="#00aae1" fill-rule="evenodd"/>
  </g>
</svg>
