<svg xmlns="http://www.w3.org/2000/svg" width="19" height="19" viewBox="0 0 19 19">
  <path id="Icon_awesome-linkedin" data-name="Icon awesome-linkedin" d="M17.643,2.25H1.353A1.363,1.363,0,0,0,0,3.62V19.88a1.363,1.363,0,0,0,1.353,1.37h16.29A1.367,1.367,0,0,0,19,19.88V3.62A1.367,1.367,0,0,0,17.643,2.25ZM5.742,18.536H2.926V9.468h2.82v9.067ZM4.334,8.23A1.633,1.633,0,1,1,5.967,6.6,1.634,1.634,0,0,1,4.334,8.23ZM16.3,18.536H13.482V14.125c0-1.052-.021-2.4-1.463-2.4-1.467,0-1.692,1.145-1.692,2.328v4.487H7.511V9.468h2.7v1.238h.038a2.966,2.966,0,0,1,2.668-1.463c2.85,0,3.38,1.879,3.38,4.322Z" transform="translate(0 -2.25)" fill="#fff"/>
</svg>
