<svg xmlns="http://www.w3.org/2000/svg" width="19.336" height="15.705" viewBox="0 0 19.336 15.705">
  <path id="Icon_awesome-twitter" data-name="Icon awesome-twitter" d="M17.349,7.295c.012.172.012.344.012.515A11.2,11.2,0,0,1,6.086,19.086,11.2,11.2,0,0,1,0,17.306a8.2,8.2,0,0,0,.957.049,7.937,7.937,0,0,0,4.92-1.693,3.97,3.97,0,0,1-3.705-2.748,5,5,0,0,0,.748.061,4.191,4.191,0,0,0,1.043-.135A3.964,3.964,0,0,1,.785,8.951V8.9a3.991,3.991,0,0,0,1.791.5A3.969,3.969,0,0,1,1.35,4.1,11.265,11.265,0,0,0,9.521,8.252a4.474,4.474,0,0,1-.1-.908,3.967,3.967,0,0,1,6.859-2.712A7.8,7.8,0,0,0,18.8,3.675a3.952,3.952,0,0,1-1.742,2.184,7.945,7.945,0,0,0,2.282-.613,8.519,8.519,0,0,1-1.988,2.049Z" transform="translate(0 -3.381)" fill="#fff"/>
</svg>
