<svg xmlns="http://www.w3.org/2000/svg" width="21.581" height="23.147" viewBox="0 0 21.581 23.147">
  <g id="Group_813" data-name="Group 813" transform="translate(0)">
    <path id="Icon_material-date-range" data-name="Icon material-date-range" d="M23.683,5.315h-1.2V3h-2.4V5.315H10.495V3H8.1V5.315H6.9A2.346,2.346,0,0,0,4.512,7.629L4.5,23.833a2.357,2.357,0,0,0,2.4,2.315H23.683a2.364,2.364,0,0,0,2.4-2.315V7.629A2.364,2.364,0,0,0,23.683,5.315Zm0,18.518H6.9V11.1H23.683Z" transform="translate(-4.5 -3)" fill="#fff" opacity="0.5"/>
    <g id="Rectangle_527" data-name="Rectangle 527" transform="translate(5.632 11.342)" fill="none" stroke="#fff" stroke-width="1" opacity="0.25">
      <rect width="3.781" height="3.781" stroke="none"/>
      <rect x="0.5" y="0.5" width="2.781" height="2.781" fill="none"/>
    </g>
    <g id="Rectangle_528" data-name="Rectangle 528" transform="translate(13.193 11.342)" fill="none" stroke="#fff" stroke-width="1" opacity="0.25">
      <rect width="3.781" height="3.781" stroke="none"/>
      <rect x="0.5" y="0.5" width="2.781" height="2.781" fill="none"/>
    </g>
  </g>
</svg>
