<svg xmlns="http://www.w3.org/2000/svg" width="104" height="104" viewBox="0 0 104 104">
  <path id="Icon_metro-qrcode" data-name="Icon metro-qrcode" d="M35.071,8.428h-26v26h26Zm6.5-6.5v39h-39v-39Zm-26,13h13v13h-13Zm84.5-6.5h-26v26h26v-26Zm6.5-6.5v39h-39v-39h39Zm-26,13h13v13h-13Zm-45.5,58.5h-26v26h26Zm6.5-6.5v39h-39v-39Zm-26,13h13v13h-13Zm32.5-78h6.5v6.5h-6.5Zm6.5,6.5h6.5v6.5h-6.5Zm-6.5,6.5h6.5v6.5h-6.5Zm6.5,6.5h6.5v6.5h-6.5Zm-6.5,6.5h6.5v6.5h-6.5Zm6.5,6.5h6.5v6.5h-6.5Zm-6.5,6.5h6.5v6.5h-6.5Zm0,13h6.5v6.5h-6.5Zm6.5,6.5h6.5v6.5h-6.5Zm-6.5,6.5h6.5v6.5h-6.5Zm6.5,6.5h6.5v6.5h-6.5Zm-6.5,6.5h6.5v6.5h-6.5Zm6.5,6.5h6.5v6.5h-6.5Zm-6.5,6.5h6.5v6.5h-6.5Zm6.5,6.5h6.5v6.5h-6.5Zm45.5-45.5h6.5v6.5h-6.5Zm-91,0h6.5v6.5h-6.5Zm6.5-6.5h6.5v6.5h-6.5Zm-13,0h6.5v6.5h-6.5Zm26,0h6.5v6.5h-6.5Zm6.5,6.5h6.5v6.5h-6.5Zm6.5-6.5h6.5v6.5h-6.5Zm19.5,6.5h6.5v6.5h-6.5Zm6.5-6.5h6.5v6.5h-6.5Zm6.5,6.5h6.5v6.5h-6.5Zm6.5-6.5h6.5v6.5h-6.5Zm6.5,6.5h6.5v6.5h-6.5Zm6.5-6.5h6.5v6.5h-6.5Zm6.5,19.5h6.5v6.5h-6.5Zm-39,0h6.5v6.5h-6.5Zm6.5-6.5h6.5v6.5h-6.5Zm6.5,6.5h6.5v6.5h-6.5Zm13,0h6.5v6.5h-6.5Zm6.5-6.5h6.5v6.5h-6.5Zm6.5,19.5h6.5v6.5h-6.5Zm-39,0h6.5v6.5h-6.5Zm6.5-6.5h6.5v6.5h-6.5Zm13,0h6.5v6.5h-6.5Zm6.5,6.5h6.5v6.5h-6.5Zm6.5-6.5h6.5v6.5h-6.5Zm6.5,19.5h6.5v6.5h-6.5Zm-32.5-6.5h6.5v6.5h-6.5Zm6.5,6.5h6.5v6.5h-6.5Zm6.5-6.5h6.5v6.5h-6.5Zm6.5,6.5h6.5v6.5h-6.5Zm-19.5,6.5h6.5v6.5h-6.5Zm13,0h6.5v6.5h-6.5Zm13,0h6.5v6.5h-6.5Z" transform="translate(-2.571 -1.928)" fill="#fff" opacity="0.7"/>
</svg>
