<svg xmlns="http://www.w3.org/2000/svg" width="37.202" height="15.5" viewBox="0 0 37.202 15.5">
  <g id="Group_816" data-name="Group 816" transform="translate(0)">
    <g id="Group_785" data-name="Group 785" transform="translate(0 0)" opacity="0.5">
      <path id="Path_5295" data-name="Path 5295" d="M.278,0h8.7a.252.252,0,0,1,.278.212V1.7a40.892,40.892,0,0,1-4.6.3A42.52,42.52,0,0,1,0,1.7V.212A.252.252,0,0,1,.278,0Z" transform="translate(1.341 9.957)" fill="#fcfcfc" opacity="0.9"/>
      <path id="Rectangle_482" data-name="Rectangle 482" d="M.775,0h0A.775.775,0,0,1,1.55.775V9.3a0,0,0,0,1,0,0H0a0,0,0,0,1,0,0V.775A.775.775,0,0,1,.775,0Z" transform="translate(0 6.2)" fill="#fcfcfc"/>
      <path id="Rectangle_483" data-name="Rectangle 483" d="M1.55,0h0A1.55,1.55,0,0,1,3.1,1.55V9.3a0,0,0,0,1,0,0H0a0,0,0,0,1,0,0V1.55A1.55,1.55,0,0,1,1.55,0Z" transform="translate(9.3 6.2)" fill="#fcfcfc"/>
      <path id="Rectangle_484" data-name="Rectangle 484" d="M3.875,0h0A3.875,3.875,0,0,1,7.75,3.875V10.85a0,0,0,0,1,0,0H0a0,0,0,0,1,0,0V3.875A3.875,3.875,0,0,1,3.875,0Z" transform="translate(1.55 0)" fill="#fcfcfc"/>
    </g>
    <g id="Group_789" data-name="Group 789" transform="translate(13.951 0)" opacity="0.5">
      <path id="Path_5295-2" data-name="Path 5295" d="M.278,0h8.7a.252.252,0,0,1,.278.212V1.7a40.892,40.892,0,0,1-4.6.3A42.52,42.52,0,0,1,0,1.7V.212A.252.252,0,0,1,.278,0Z" transform="translate(0.622 9.957)" fill="#fff" opacity="0.9"/>
      <path id="Rectangle_482-2" data-name="Rectangle 482" d="M.775,0h0A.775.775,0,0,1,1.55.775V9.3a0,0,0,0,1,0,0H0a0,0,0,0,1,0,0V.775A.775.775,0,0,1,.775,0Z" transform="translate(0 6.2)" fill="#fff"/>
      <path id="Rectangle_483-2" data-name="Rectangle 483" d="M.775,0h0A.775.775,0,0,1,1.55.775V9.3a0,0,0,0,1,0,0H0a0,0,0,0,1,0,0V.775A.775.775,0,0,1,.775,0Z" transform="translate(9.3 6.2)" fill="#fff"/>
      <path id="Rectangle_484-2" data-name="Rectangle 484" d="M3.875,0h0A3.875,3.875,0,0,1,7.75,3.875V10.85a0,0,0,0,1,0,0H0a0,0,0,0,1,0,0V3.875A3.875,3.875,0,0,1,3.875,0Z" transform="translate(1.55 0)" fill="#fff"/>
    </g>
    <g id="Group_793" data-name="Group 793" transform="translate(26.352 0)" opacity="0.25">
      <path id="Path_5295-3" data-name="Path 5295" d="M.278,0h8.7a.252.252,0,0,1,.278.212V1.7a40.892,40.892,0,0,1-4.6.3A42.52,42.52,0,0,1,0,1.7V.212A.252.252,0,0,1,.278,0Z" transform="translate(0.622 9.957)" fill="#fff" opacity="0.9"/>
      <path id="Rectangle_482-3" data-name="Rectangle 482" d="M.775,0h0A.775.775,0,0,1,1.55.775V9.3a0,0,0,0,1,0,0H0a0,0,0,0,1,0,0V.775A.775.775,0,0,1,.775,0Z" transform="translate(0 6.2)" fill="#fff"/>
      <path id="Rectangle_483-3" data-name="Rectangle 483" d="M.775,0h0A.775.775,0,0,1,1.55.775V9.3a0,0,0,0,1,0,0H0a0,0,0,0,1,0,0V.775A.775.775,0,0,1,.775,0Z" transform="translate(9.3 6.2)" fill="#fff"/>
      <path id="Rectangle_484-3" data-name="Rectangle 484" d="M3.875,0h0A3.875,3.875,0,0,1,7.75,3.875V10.85a0,0,0,0,1,0,0H0a0,0,0,0,1,0,0V3.875A3.875,3.875,0,0,1,3.875,0Z" transform="translate(1.55 0)" fill="#fff"/>
    </g>
  </g>
</svg>
