<svg xmlns="http://www.w3.org/2000/svg" width="21.077" height="18.735" viewBox="0 0 21.077 18.735">
  <path id="Icon_awesome-shopping-cart" data-name="Icon awesome-shopping-cart" d="M19.325,11.026l1.73-7.611A.878.878,0,0,0,20.2,2.342H5.826L5.49.7A.878.878,0,0,0,4.63,0H.878A.878.878,0,0,0,0,.878v.585a.878.878,0,0,0,.878.878H3.435L6.006,14.909a2.049,2.049,0,1,0,2.453.313h7.671a2.049,2.049,0,1,0,2.327-.381l.2-.888A.878.878,0,0,0,17.8,12.88H7.981L7.742,11.71H18.469A.878.878,0,0,0,19.325,11.026Z" fill="rgba(248,68,100,0.95)"/>
</svg>
