<svg xmlns="http://www.w3.org/2000/svg" xmlns:xlink="http://www.w3.org/1999/xlink" width="1297.137" height="462.2" viewBox="0 0 1297.137 462.2">
  <defs>
    <filter id="Subtraction_23" x="0" y="0" width="1297.137" height="462.2" filterUnits="userSpaceOnUse">
      <feOffset dx="2" dy="2" input="SourceAlpha"/>
      <feGaussianBlur stdDeviation="4" result="blur"/>
      <feFlood flood-color="#cc3232" flood-opacity="0.729"/>
      <feComposite operator="in" in2="blur"/>
      <feComposite in="SourceGraphic"/>
    </filter>
  </defs>
  <g id="Group_812" data-name="Group 812" transform="translate(10.001 578.694) rotate(-90)">
    <g transform="matrix(0, 1, -1, 0, 578.69, -10)" filter="url(#Subtraction_23)">
      <path id="Subtraction_23-2" data-name="Subtraction 23" d="M424.2,1273.137H14a14,14,0,0,1-14-14V999.957c6.658-4.657,12.279-11.768,16.256-20.564A73.856,73.856,0,0,0,22.5,949.169a73.86,73.86,0,0,0-6.247-30.225c-3.977-8.8-9.6-15.906-16.256-20.564V505.589c6.658-4.657,12.279-11.768,16.256-20.564A73.858,73.858,0,0,0,22.5,454.8a73.86,73.86,0,0,0-6.247-30.224c-3.977-8.8-9.6-15.907-16.256-20.564V14A14,14,0,0,1,14,0H424.2a14,14,0,0,1,14,14V405.123c-12.95,10.029-20.994,29.064-20.994,49.678s8.044,39.649,20.994,49.677V899.491c-12.95,10.028-20.994,29.064-20.994,49.678s8.044,39.649,20.994,49.677v260.29a14,14,0,0,1-14,14Z" transform="translate(10 448.2) rotate(-90)" fill="#2c2c2c" opacity="0.5"/>
    </g>
    <line id="Line_6" data-name="Line 6" x2="385.361" transform="translate(157.099 456.763)" fill="none" stroke="rgba(248,68,100,0.95)" stroke-width="1" stroke-dasharray="5"/>
    <line id="Line_7" data-name="Line 7" x2="387.305" transform="translate(157.099 949.999)" fill="none" stroke="rgba(248,68,100,0.95)" stroke-width="1" stroke-dasharray="5"/>
  </g>
</svg>
